<svg width="100" height="100" fill="none" xmlns="http://www.w3.org/2000/svg"><g clip-path="url(#Accuracy Icon__a)"><path d="M83.846 36.154h1.163A43.968 43.968 0 0 1 89.23 55c0 24.389-19.842 44.23-44.23 44.23C20.61 99.23.768 79.39.768 55 .77 30.611 20.611 10.77 45 10.77a43.97 43.97 0 0 1 18.846 4.221v4.845l-3.069 3.069A35.545 35.545 0 0 0 45 19.231C25.277 19.23 9.23 35.277 9.23 55S25.278 90.77 45 90.77c19.723 0 35.77-16.047 35.77-35.77a35.55 35.55 0 0 0-3.675-15.778l3.069-3.068h3.682ZM63.077 55c0 9.968-8.11 18.077-18.077 18.077-9.968 0-18.077-8.11-18.077-18.077 0-9.968 8.11-18.077 18.077-18.077.566 0 1.125.03 1.678.08l7.058-7.057A26.414 26.414 0 0 0 45 28.46c-14.633 0-26.538 11.906-26.538 26.539 0 14.633 11.905 26.538 26.538 26.538 14.633 0 26.538-11.904 26.538-26.538 0-3.06-.526-5.998-1.484-8.736l-7.057 7.057c.05.554.08 1.113.08 1.679Zm20.77-26.538L99.23 13.077H86.923V.769L71.538 16.154v6.868L47.915 46.647A8.846 8.846 0 0 0 36.154 55 8.846 8.846 0 0 0 45 63.846a8.846 8.846 0 0 0 8.353-11.76l23.625-23.624h6.868Z" fill="#F49E1E"/><path d="m85.46 35.94-.134-.286h-5.369l-.147.146-3.068 3.069-.254.253.16.322A35.051 35.051 0 0 1 80.268 55c0 19.447-15.822 35.27-35.269 35.27S9.73 74.446 9.73 55c0-19.447 15.823-35.27 35.27-35.27 5.58 0 10.861 1.306 15.556 3.623l.322.159.253-.253 3.069-3.07.146-.146v-5.368l-.286-.136A44.47 44.47 0 0 0 45 10.27C20.335 10.27.27 30.335.27 55 .27 79.665 20.334 99.73 45 99.73c24.665 0 44.73-20.065 44.73-44.73a44.468 44.468 0 0 0-4.27-19.06Zm-38.828 1.562.234.021.166-.166L54.09 30.3l.563-.563-.752-.262a26.914 26.914 0 0 0-8.9-1.512C30.09 27.962 17.96 40.09 17.96 55S30.09 82.038 45 82.038c14.91 0 27.038-12.128 27.038-27.038 0-3.118-.537-6.112-1.513-8.901l-.263-.752-.562.563-7.058 7.058-.166.166.022.233c.05.54.078 1.084.078 1.633 0 9.692-7.885 17.577-17.577 17.577-9.691 0-17.577-7.885-17.577-17.577 0-9.692 7.886-17.577 17.577-17.577.549 0 1.093.029 1.632.079Zm37.214-8.54h.207l.147-.147L99.584 13.43l.854-.853H87.423V-.438l-.853.854L71.185 15.8l-.147.147v6.867l-23.26 23.262A9.346 9.346 0 0 0 35.654 55 9.346 9.346 0 0 0 45 64.346a9.346 9.346 0 0 0 8.924-12.124l23.261-23.26h6.661Z" stroke="red" stroke-opacity=".5"/></g><defs><clipPath id="Accuracy Icon__a"><path fill="#fff" d="M0 0h100v100H0z"/></clipPath></defs></svg>