<svg width="125" height="125" fill="none" xmlns="http://www.w3.org/2000/svg"><path transform="matrix(.8385 .5449 -.5035 .864 3.314 63)" stroke="#fff" stroke-width="5" stroke-linecap="round" d="M2.5-2.5h39.045"/><path d="m6.155 62-1.187-2.821a15 15 0 0 1 .268-12.238L6.156 45" stroke="#fff" stroke-width="5" stroke-linecap="round"/><path d="m41.193 82-.365-2.057a36.002 36.002 0 0 1-.114-11.906l.48-3.037m68.181-1-1.007-6.028a14.976 14.976 0 0 1 0-4.944L109.375 47" stroke="#fff" stroke-width="2" stroke-linecap="round"/><path transform="matrix(.9705 -.24114 .21748 .97606 38.352 87)" stroke="#fff" stroke-width="5" stroke-linecap="round" d="M2.5-2.5h77.94"/><path d="M70.623 33.056a2 2 0 0 1 .79.047L93.75 39l23.098 5.913c2.041.523 1.991 3.44-.067 3.891L41.456 65.338a2 2 0 0 1-1.396-.203L5.24 45.896c-1.681-.929-1.213-3.463.689-3.73l64.693-9.11Z" fill="#fff"/></svg>