<svg width="100" height="100" fill="none" xmlns="http://www.w3.org/2000/svg"><path d="M92.188 45.313H88.78A39.138 39.138 0 0 0 54.687 11.22V7.812a4.688 4.688 0 0 0-9.374 0v3.408A39.138 39.138 0 0 0 11.22 45.313H7.812a4.688 4.688 0 0 0 0 9.374h3.408A39.138 39.138 0 0 0 45.313 88.78v3.407a4.688 4.688 0 0 0 9.374 0V88.78A39.138 39.138 0 0 0 88.78 54.687h3.407a4.688 4.688 0 0 0 0-9.374Zm-37.5 34v-1.188a4.688 4.688 0 0 0-9.376 0v1.189a29.755 29.755 0 0 1-24.626-24.626h1.189a4.688 4.688 0 0 0 0-9.376h-1.189a29.756 29.756 0 0 1 24.627-24.626v1.189a4.688 4.688 0 0 0 9.374 0v-1.189a29.755 29.755 0 0 1 24.627 24.627h-1.189a4.688 4.688 0 0 0 0 9.374h1.189a29.757 29.757 0 0 1-24.626 24.627ZM50 32.814A17.187 17.187 0 1 0 67.188 50 17.207 17.207 0 0 0 50 32.812Zm0 25A7.813 7.813 0 1 1 57.813 50 7.821 7.821 0 0 1 50 57.813Z" fill="#E40C0C"/></svg>