<?xml version="1.0" encoding="utf-8"?>
<!-- Svg Vector Icons : http://www.onlinewebfonts.com/icon -->
<!DOCTYPE svg PUBLIC "-//W3C//DTD SVG 1.1//EN" "http://www.w3.org/Graphics/SVG/1.1/DTD/svg11.dtd">
<svg version="1.1" xmlns="http://www.w3.org/2000/svg" xmlns:xlink="http://www.w3.org/1999/xlink" x="0px" y="0px" viewBox="0 0 1000 1000" enable-background="new 0 0 1000 1000" xml:space="preserve">
<metadata> Svg Vector Icons : http://www.onlinewebfonts.com/icon </metadata>
<g><path d="M658.4,76c-18.8-6.7-39.4,3.1-46.2,21.9c-6.7,18.8,3.1,39.4,21.9,46.2c158.1,56.5,264.3,207.3,264.3,375.3c0,219.7-178.7,398.5-398.4,398.5S101.6,739,101.6,519.3c0-172.3,109.8-324.4,273.3-378.4c18.9-6.3,29.2-26.7,23-45.6c-6.3-18.9-26.6-29.2-45.6-23c-193.1,63.8-322.9,243.5-322.9,447C29.3,778.9,240.5,990,500,990c259.5,0,470.7-211.1,470.7-470.7C970.7,320.9,845.2,142.8,658.4,76z"/><path d="M156.9,519.3c0-5-4-9-9-9c-5,0-9,4-9,9c0,199.2,162,361.2,361.2,361.2c199.2,0,361.2-162,361.2-361.2c0-77.8-24.3-151.9-70.4-214.3c-2.9-4-8.6-4.8-12.6-1.9c-4,3-4.9,8.6-1.9,12.6c43.8,59.3,66.9,129.7,66.9,203.6c0,189.2-153.9,343.2-343.1,343.2C310.8,862.5,156.9,708.5,156.9,519.3z"/><path d="M743.6,274.1c2.4,0,4.7-0.9,6.5-2.8c3.5-3.6,3.3-9.3-0.3-12.8c-9.5-9.2-19.8-18-30.6-26.3c-3.9-3.1-9.6-2.3-12.7,1.7c-3,4-2.3,9.6,1.7,12.7c10.3,7.9,20.1,16.3,29.1,25C739.1,273.2,741.3,274.1,743.6,274.1z"/><path d="M500,668.6c19.9,0,36.1-16.2,36.1-36.1V46.1c0-19.9-16.2-36.1-36.1-36.1c-19.9,0-36.1,16.2-36.1,36.1v586.4C463.9,652.4,480.1,668.6,500,668.6z"/></g>
</svg>