<svg width="100" height="100" fill="none" xmlns="http://www.w3.org/2000/svg"><g clip-path="url(#Gold Coin Icon__a)"><path d="M46.29 1.367v.196c20.958 0 40.43 11.82 47.84 32.03 7.654 20.877-.488 44.691-18.935 56.967-4.504 2.997-10.188 5.973-15.625 6.706 1.013.395 2.487-.165 3.516-.416a48.549 48.549 0 0 0 9.18-3.252c12.9-6.094 22.284-17.606 26.089-31.293 6.185-22.254-5.287-46.94-26.285-56.58-8.487-3.897-16.65-4.359-25.78-4.358Z" fill="#BF9101"/><path d="M89.844 75.195h-.196c-3.16 5.677-8.13 10.746-13.476 14.386-8.616 5.866-19 9.308-29.492 8.849C17.519 97.153-4.5 69.169 1.21 40.625c1.21-6.043 3.646-11.864 7.058-16.992C12.47 17.319 18.007 12.02 24.61 8.258c7.662-4.365 16.204-6.514 25-6.5 7.334.012 15.063 2.25 21.485 5.724 2.828 1.53 5.295 3.524 8.008 5.213-.995-1.959-4.193-3.452-6.055-4.521-6.35-3.645-13.394-5.898-20.703-6.434C25.458-.23 1.199 20.65.008 47.852c-1.238 28.266 23.505 53.39 52.14 50.619 11.65-1.128 22.491-5.717 30.86-14.096 2.319-2.322 6.061-5.883 6.836-9.18Z" fill="#D9A509"/><path d="M45.703 1.84C34.276 3.342 24.052 6.83 15.43 14.862c-4.213 3.924-7.64 8.707-10.205 13.85C-8.33 55.89 7.482 89.639 36.914 96.997c5.889 1.472 11.964 1.784 17.969.995 22.906-3.012 40.973-22.757 41.984-45.844 1.02-23.3-15.785-44.798-38.664-49.375-3.987-.797-8.435-1.466-12.5-.932Z" fill="#E9C34F"/><path d="M45.508 8.481c-8.992 1.181-17.275 3.822-24.331 9.822-3.788 3.222-6.826 7.26-9.236 11.58-9.385 16.825-5.513 39.467 9.236 52.009 8.824 7.504 20.872 11.03 32.339 9.654 6.298-.756 12.432-2.891 17.773-6.33C91.41 72.263 96.58 42.884 81.436 24.062c-5.326-6.62-12.599-11.421-20.694-13.91-4.73-1.455-10.288-2.32-15.234-1.67Z" fill="#D7A301"/><path d="M46.875 10.044c-8.103 1.064-15.554 3.315-22.15 8.382-3.928 3.017-7.189 6.875-9.798 11.066C4.498 46.243 8.685 68.853 23.91 81.305c8.834 7.224 20.526 10.27 31.753 8.678 5.568-.79 10.847-2.925 15.625-5.843 3.814-2.33 7.163-5.444 9.92-8.945 13.72-17.426 10.539-44.2-7.576-57.338-3.832-2.78-8.14-4.969-12.695-6.277-4.399-1.262-9.484-2.138-14.063-1.536Z" fill="#E9C34F"/><path d="M89.844 25c1.652 4.539 4.239 8.512 5.491 13.281 2.411 9.181 1.843 18.793-1.262 27.735-1.113 3.206-3.084 6.035-4.23 9.18 2.35-2.013 3.663-6.506 4.623-9.376 3.28-9.801 3.54-20.605.325-30.468C93.764 32.2 92.427 27.213 89.844 25Z" fill="#D9A505"/><path d="M48.633 29.883c.645 2.746 3.025 5.663 4.47 8.09 1.616 2.715 2.874 5.891 4.905 8.316.273-1.412-1.021-2.93-1.719-4.102-1.728-2.9-3.318-5.883-5.04-8.789-.658-1.11-1.318-3.11-2.616-3.515Z" fill="#BF8F01"/><path d="m48.438 30.078-6.223 11.133-2.567 4.883-.39-.39c-1.195.655-3.28-.434-4.492-.787-3.435-1.002-7.771-2.822-11.328-2.925v.586c1.515.86 2.217 3.752 2.977 5.274l6.25 12.5c.649 1.296 1.416 4.04 2.616 4.877.729.51 2.342.2 3.196.2 2.745 0 5.462-.196 8.203-.195 3.763.002 7.55.196 11.328.196 1.216 0 3.306.404 4.416-.118 1.381-.65 2.48-4.398 3.153-5.742 1.947-3.894 3.766-7.85 5.763-11.718.962-1.866 2.504-3.98 2.879-6.055-.692.09-1.85.21-1.953.976-1.862-.33-3.89.625-5.664 1.167-2.9.887-5.867 1.531-8.79 2.35-.611-2.08-2.232-4.013-3.3-5.89-1.855-3.268-3.478-7.609-6.075-10.322Z" fill="#D7A301"/><path d="M22.852 41.21c.73 1.161 3.136 1.406 4.409 1.774 3.893 1.128 7.982 2.52 11.997 3.11-.756-.997-3.11-1.252-4.297-1.59-3.801-1.082-8.16-3.113-12.11-3.293Z" fill="#BF8F01"/><path d="M74.414 41.602c-2.746 5.769-5.687 11.47-8.545 17.187-.818 1.635-1.895 5.45-3.445 6.44-1.542.984-5.718.2-7.541.2H34.96v.196c6.845 0 13.671.195 20.508.195h5.273c.642 0 1.663.188 2.22-.2 1.567-1.095 2.639-4.928 3.492-6.636C69.297 53.3 72.558 47.662 75 41.797l-.586-.195Z" fill="#BF9101"/><path d="M23.438 42.578c3.208 7.706 7.316 15.644 11.523 22.852h.195c-.604-2.097-1.906-4.106-2.881-6.055L26.61 48.047c-.706-1.412-1.622-4.939-3.174-5.469Z" fill="#DFB123"/><path d="M43.164 65.234v.196h5.469l-5.469-.196Z" fill="#E3B735"/><path d="M34.96 65.625v.195h14.063l-4.492-.195h-9.57Z" fill="#D9AD25"/></g><defs><clipPath id="Gold Coin Icon__a"><path fill="#fff" d="M0 0h100v100H0z"/></clipPath></defs></svg>