<svg width="100" height="100" fill="none" xmlns="http://www.w3.org/2000/svg"><path d="M29.167 8.333c-15.362 0-25 13.395-25 27.084 0 13.921 6.975 25.83 15.714 35.123 8.753 9.307 19.606 16.362 28.256 20.687a4.166 4.166 0 0 0 3.726 0c8.65-4.325 19.503-11.38 28.256-20.687 8.739-9.293 15.714-21.202 15.714-35.123 0-13.666-9.463-27.084-25-27.084-7.187 0-12.279 2-16.172 5.041-1.834 1.433-3.365 3.085-4.672 4.694-1.322-1.613-2.868-3.265-4.719-4.702-3.9-3.027-8.983-5.033-16.103-5.033Z" fill="#E40C0C"/></svg>