<svg width="142" height="142" fill="none" xmlns="http://www.w3.org/2000/svg"><rect x="1.414" y="70.711" width="98" height="98" rx="9" transform="rotate(-45 1.414 70.71)" fill="#363636" stroke="#7A7A7A" stroke-width="2"/><rect x="9.296" y="70.815" width="87" height="87" rx="6" transform="rotate(-45 9.296 70.815)" stroke="#7A7A7A" stroke-width="2"/><path d="M70.504 36c4.352 0 8.192.8 11.52 2.4 3.392 1.536 6.016 3.712 7.872 6.528 1.92 2.816 2.88 6.016 2.88 9.6 0 5.056-1.6 9.344-4.8 12.864-3.2 3.52-7.84 5.472-13.92 5.856v6.72c0 .96-.32 1.792-.96 2.496-.64.704-1.44 1.056-2.4 1.056h-1.92c-.96 0-1.76-.352-2.4-1.056a3.588 3.588 0 0 1-.96-2.496v-9.6c0-1.088.288-1.952.864-2.592.64-.64 1.472-.96 2.496-.96h1.728c4.672 0 8.064-1.088 10.176-3.264 2.176-2.24 3.264-5.184 3.264-8.832 0-3.392-1.152-6.08-3.456-8.064-2.304-2.048-5.408-3.072-9.312-3.072-3.2 0-5.856.512-7.968 1.536s-3.616 2.528-4.512 4.512c1.216 1.088 1.824 2.528 1.824 4.32 0 1.6-.512 2.912-1.536 3.936-1.024.96-2.368 1.44-4.032 1.44-1.856 0-3.328-.608-4.416-1.824C49.512 56.288 49 54.656 49 52.608c0-3.2.896-6.048 2.688-8.544 1.792-2.56 4.32-4.544 7.584-5.952C62.536 36.704 66.28 36 70.504 36Zm-.672 55.584c1.984 0 3.616.64 4.896 1.92 1.344 1.216 2.016 2.816 2.016 4.8s-.672 3.616-2.016 4.896c-1.28 1.28-2.912 1.92-4.896 1.92s-3.648-.64-4.992-1.92c-1.28-1.28-1.92-2.912-1.92-4.896s.64-3.584 1.92-4.8c1.344-1.28 3.008-1.92 4.992-1.92Z" fill="#fff"/></svg>