<svg
    width="145"
    height="145"
    fill="none"
    xmlns="http://www.w3.org/2000/svg">
    <rect x="1.414" y="72.5" width="100.53" height="100.53" rx="9" transform="rotate(-45 1.414 72.5)" fill="#363636" stroke="#7A7A7A" stroke-width="2"/>
    <rect x="9.568" y="72.607" width="89.151" height="89.151" rx="6" transform="rotate(-45 9.568 72.607)" stroke="#7A7A7A" stroke-width="2"/>
    <path d="m67.086 103.607 1.344-19.008V71.16l-1.44-9.888 9.888-.96-1.056 18.816v5.568l1.056 18.912h-9.792Zm-1.344-57.888c1.984-2.752 4.128-4.896 6.432-6.432a30.64 30.64 0 0 1 6.432 6.432c-1.856 2.688-4 4.832-6.432 6.432-2.496-1.6-4.64-3.744-6.432-6.432Z" fill="#fff"/>
</svg>