<svg width="127" height="127" fill="none" xmlns="http://www.w3.org/2000/svg"><rect x="1" y="1" width="125" height="125" rx="15" fill="#C6C6C6"/><g filter="url(#Group 2__a)"><rect x="1" y="1" width="125" height="125" rx="15" fill="#fff" fill-opacity=".15"/><rect x=".5" y=".5" width="126" height="126" rx="15.5" stroke="#fff" stroke-opacity=".7"/></g><rect x="26.08" y="26" width="77" height="86" rx="5" fill="#fff"/><path fill="#fff" d="M41.08 23h46v7h-46z"/><ellipse cx="64.58" cy="23" rx="6.5" ry="7" fill="#fff"/><path d="M99.18 25.33h-9.04c-1.22-3.06-4.21-5.23-7.7-5.23H71.99c-.89-3.5-4.06-6.1-7.83-6.1-3.77 0-6.95 2.6-7.83 6.1H45.86c-3.49 0-6.48 2.17-7.7 5.23h-9.18c-3.3 0-5.98 2.68-5.98 5.98v74.71c0 3.3 2.68 5.98 5.98 5.98h70.2c3.3 0 5.98-2.68 5.98-5.98V31.31c.01-3.3-2.68-5.98-5.98-5.98Zm-53.32-1.27h14.18v-1.98a4.11 4.11 0 1 1 8.22 0v1.98h14.18a4.3 4.3 0 0 1 3.05 1.26 4.309 4.309 0 0 1 .83 4.95 4.302 4.302 0 0 1-3.87 2.41H45.86a4.302 4.302 0 0 1-4.31-4.31c0-1.19.48-2.27 1.27-3.05.78-.77 1.86-1.26 3.04-1.26Zm54.36 81.96c0 .57-.46 1.03-1.03 1.03H28.98c-.57 0-1.03-.46-1.03-1.03V31.31c0-.57.46-1.03 1.03-1.03h8.83c.86 3.65 4.15 6.38 8.06 6.38h36.58c3.91 0 7.2-2.73 8.06-6.38h8.67c.57 0 1.03.46 1.03 1.03v74.71h.01Z" fill="#000"/><path d="M37.28 46.96v4.95h53.44v-4.95H37.28Zm0 11.44v4.95h53.44V58.4H37.28Zm0 11.45v4.95h53.44v-4.95H37.28Zm0 11.45v4.95h53.44V81.3H37.28Zm0 11.44v4.95h53.44v-4.95H37.28Z" fill="#000"/><defs><filter id="Group 2__a" x="-5" y="-5" width="137" height="137" filterUnits="userSpaceOnUse" color-interpolation-filters="sRGB"><feFlood flood-opacity="0" result="BackgroundImageFix"/><feGaussianBlur in="BackgroundImageFix" stdDeviation="2.5"/><feComposite in2="SourceAlpha" operator="in" result="effect1_backgroundBlur_160_28"/><feBlend in="SourceGraphic" in2="effect1_backgroundBlur_160_28" result="shape"/></filter></defs></svg>