<svg width="125" height="125" fill="none" xmlns="http://www.w3.org/2000/svg"><path d="M35.032 95.926a14.792 14.792 0 0 0-2.537-3.4 14.943 14.943 0 0 0-3.584-2.63c-1.554-.822-.326-2.583-.326-2.583 1.59-2.42 3.041-4.851 4.24-6.97l-8.05-8.043h-7.816a2.722 2.722 0 0 1 0-5.445H25.9c.724 0 1.415.287 1.926.797L57.247 97.04c.511.51.798 1.204.798 1.926v8.983a2.72 2.72 0 0 1-2.722 2.721 2.72 2.72 0 0 1-2.724-2.721v-7.855l-8.019-8.007a120.97 120.97 0 0 0-7.173 4.565s-1.428 1.016-2.375-.726Zm-12.868-2.23a9.11 9.11 0 0 0-6.482 2.682 9.087 9.087 0 0 0-2.682 6.47c0 2.445.953 4.742 2.682 6.47A9.125 9.125 0 0 0 22.164 112a9.115 9.115 0 0 0 6.48-2.682 9.083 9.083 0 0 0 2.684-6.47 9.084 9.084 0 0 0-2.684-6.47 9.107 9.107 0 0 0-6.48-2.682Zm25.63-18.876a3.114 3.114 0 0 1-4.388 0l-3.036-3.033a3.106 3.106 0 0 1 0-4.383L92.194 15.64c1.207-1.205 3.584-2.318 5.283-2.472l12.702-1.155c1.699-.155 2.963 1.109 2.808 2.807l-1.153 12.677c-.154 1.699-1.268 4.074-2.475 5.28l-51.827 51.77a3.115 3.115 0 0 1-4.388 0l-3.04-3.036a3.106 3.106 0 0 1 0-4.384l43.391-43.346a1.63 1.63 0 0 0 .001-2.31 1.635 1.635 0 0 0-2.311 0L47.794 74.82Z" fill="#fff"/></svg>