<svg width="125" height="125" fill="none" xmlns="http://www.w3.org/2000/svg"><path d="M93.132 27.492c-2.824-5.134-7.247-9.413-12.725-12.516C74.93 11.886 68.32 10 61.146 10c-8.843-.02-16.19 2.183-21.736 5.234-5.567 3.04-7.968 6.58-7.968 6.58-.936.777-1.463 1.907-1.441 3.088a3.924 3.924 0 0 0 1.56 3.032l7.705 5.902c1.57 1.203 3.818 1.158 5.334-.106 0 0 .947-1.636 3.913-3.257 2.983-1.61 6.85-2.906 12.633-2.924 5.043-.01 9.44 1.79 12.441 4.249 1.491 1.218 2.605 2.583 3.287 3.83.688 1.26.94 2.36.936 3.195-.015 2.823-.588 4.67-1.416 6.243-.632 1.174-1.456 2.217-2.517 3.228-1.584 1.515-3.731 2.914-6.14 4.2-2.412 1.302-5.011 2.447-7.638 3.831-2.997 1.587-6.17 3.867-8.513 7.29a19.321 19.321 0 0 0-2.663 5.668c-.588 2.043-.853 4.186-.853 6.372v4.247c0 2.198 1.863 3.98 4.162 3.98H62.26c2.299 0 4.162-1.782 4.162-3.98v-4.247c0-.842.1-1.385.197-1.73.166-.515.259-.644.53-.957.276-.298.835-.754 1.865-1.299 1.505-.809 3.924-1.902 6.663-3.317 4.1-2.144 9.085-5.055 13.29-9.857 2.09-2.396 3.94-5.282 5.215-8.606 1.287-3.325 1.982-7.061 1.979-11.066-.004-4.058-1.154-7.911-3.029-11.33ZM57.25 93.352c-6.252 0-11.321 4.849-11.321 10.826 0 5.975 5.069 10.822 11.32 10.822 6.248 0 11.315-4.847 11.315-10.822 0-5.977-5.067-10.826-11.315-10.826Z" fill="#fff"/></svg>