<svg width="125" height="125" fill="none" xmlns="http://www.w3.org/2000/svg"><rect x="7" y="6" width="111" height="111" rx="9" fill="#77D3C3" stroke="#fff" stroke-width="2"/><path d="M62.5 24C41.79 24 25 40.79 25 61.5S41.79 99 62.5 99c13.9 0 26.024-7.569 32.501-18.805L81.8 72.601c-3.849 6.674-11.042 11.178-19.3 11.178-12.305 0-22.28-9.974-22.28-22.279s9.975-22.28 22.28-22.28a22.127 22.127 0 0 1 13.92 4.912l-9.846 7.004L100 62.283V27.35l-10.886 7.745C82.32 28.247 72.91 24 62.5 24Z" fill="#fff"/></svg>