<svg width="142" height="142" fill="none" xmlns="http://www.w3.org/2000/svg"><rect x="1.414" y="70.711" width="98" height="98" rx="9" transform="rotate(-45 1.414 70.71)" fill="#363636" stroke="#7A7A7A" stroke-width="2"/><rect x="9.296" y="70.815" width="87" height="87" rx="6" transform="rotate(-45 9.296 70.815)" stroke="#7A7A7A" stroke-width="2"/><path d="m95.53 74.784 6.7-4.385-2.966-13.596-7.854-.91-2-2.632.895-8.214L78.29 39l-5.575 5.848h-3.207L63.933 39 51.92 45.054l.902 8.207-2 2.624-7.855.91L40 70.393l6.693 4.392.717 3.27-4.216 6.99 8.319 10.906 7.455-2.745 2.889 1.455 2.59 7.815h13.335l2.598-7.808 2.889-1.455 7.455 2.744 8.312-10.905-4.216-6.99.71-3.277Zm-6.425 15.278-6.122-2.253-6.464 3.256-2.134 6.413h-6.54l-2.134-6.413-6.464-3.256-6.121 2.253-4.084-5.35 3.461-5.741-1.6-7.316-5.5-3.609 1.461-6.678 6.452-.751 4.47-5.868-.736-6.745 5.899-2.97 4.585 4.804h7.175l4.585-4.804 5.899 2.97-.743 6.745 4.47 5.868 6.452.75 1.454 6.673-5.499 3.608-1.606 7.323 3.46 5.742-4.076 5.349ZM71.159 58.025c-6.527 0-11.817 5.536-11.817 12.367 0 6.831 5.29 12.367 11.817 12.367 6.528 0 11.818-5.536 11.818-12.367 0-6.831-5.29-12.367-11.818-12.367Zm0 20.308c-4.19 0-7.588-3.555-7.588-7.941 0-4.386 3.398-7.941 7.588-7.941 4.191 0 7.589 3.555 7.589 7.941 0 4.386-3.398 7.941-7.589 7.941Z" fill="#fff"/></svg>