<svg width="100" height="100" fill="none" xmlns="http://www.w3.org/2000/svg"><path d="M13.101 15.43c-.78 0-1.328.625-1.328 1.406v.078c-1.171 20.242 2.368 46.305 18.758 65.25 9.453 11.484 18.68 14.477 19.149 14.633 0 0 .218.07.422.07.203 0 .445-.078.445-.078.39-.156 9.75-3.14 19.133-14.625 15.554-18.914 18.757-45.953 18.757-65.25v-.078c0-.781-.624-1.406-1.328-1.406-.234 0-22.742-.782-35.945-11.953a1.426 1.426 0 0 0-1.875 0C35.922 14.57 13.336 15.352 13.101 15.43Z" fill="#B0BEC5"/><path d="M87.102 15.43c-.235 0-22.743-.782-35.946-11.953a1.407 1.407 0 0 0-.968-.352h-.086v93.75c.21-.008.484-.086.484-.094.469-.195 9.719-3.125 19.094-14.61 15.554-18.913 18.757-45.952 18.757-65.25v-.077c0-.79-.624-1.414-1.335-1.414Z" fill="#84B0C1"/><path d="M20.57 22.117c-.64 0-.797.797-.797 1.36v.078c0 15.406 2.391 37.03 14.844 52.117 7.5 9.18 14.844 11.57 15.164 11.648l.32.078.32-.078c.321-.078 7.665-2.476 15.165-11.648C78.039 60.586 80.43 39.039 80.43 23.555v-.078c0-.641-.32-1.118-.961-1.118h.078c-.156 0-18.117-.64-28.649-9.5-.93-.765-1.515-.156-1.515-.156-10.61 8.86-28.57 9.414-28.813 9.414Z" fill="#2F7889"/><path d="M22.797 23.492c-.594 0-.735.75-.735 1.281v.079c0 14.507 2.211 34.882 13.727 49.093 6.938 8.649 13.727 10.899 14.023 10.977l.297.078.297-.078c.297-.078 7.086-2.328 14.024-10.977 11.507-14.21 13.726-34.507 13.726-49.093v-.079c0-.601-.297-1.054-.883-1.054h.07c-.148 0-16.75-.602-26.491-8.946-.735-.742-1.399-.148-1.399-.148-9.828 8.344-26.43 8.867-26.656 8.867Z" fill="#C9E3E6"/><path d="M77.258 23.719h.07c-.148 0-16.75-.602-26.492-8.946-.266-.265-.516-.359-.734-.367v70.586l.296-.078c.297-.078 7.086-2.328 14.024-10.977C75.93 59.727 78.148 39.43 78.148 24.844v-.078c-.007-.594-.296-1.047-.89-1.047Z" fill="#B0BEC5"/><path d="M55.18 12.79a1.508 1.508 0 1 0 0-3.017 1.508 1.508 0 0 0 0 3.016Zm9.047 4.085a1.508 1.508 0 1 0 0-3.016 1.508 1.508 0 0 0 0 3.016Zm10 2.765a1.508 1.508 0 1 0 0-3.015 1.508 1.508 0 0 0 0 3.016Zm10.265 1.508a1.508 1.508 0 1 0 0-3.015 1.508 1.508 0 0 0 0 3.015Zm.328 9.219a1.508 1.508 0 1 0 0-3.015 1.508 1.508 0 0 0 0 3.015Zm-1.21 10.797a1.508 1.508 0 1 0 0-3.016 1.508 1.508 0 0 0 0 3.016ZM50.063 93.781a1.508 1.508 0 1 0 0-3.015 1.508 1.508 0 0 0 0 3.015Zm8.843-4.218a1.508 1.508 0 1 0 0-3.016 1.508 1.508 0 0 0 0 3.016Zm8.078-7.813a1.508 1.508 0 1 0 0-3.016 1.508 1.508 0 0 0 0 3.016Zm6.306-8.937a1.508 1.508 0 1 0-.001-3.016 1.508 1.508 0 0 0 0 3.016Zm4.577-9.586a1.508 1.508 0 1 0 0-3.016 1.508 1.508 0 0 0 0 3.016Zm3.593-11.211A1.508 1.508 0 1 0 81.462 49a1.508 1.508 0 0 0 0 3.016Z" fill="#37474F"/><path d="M54.805 12.29a1.508 1.508 0 1 0 0-3.017 1.508 1.508 0 0 0 0 3.016Zm9.047 4.085a1.508 1.508 0 1 0 0-3.016 1.508 1.508 0 0 0 0 3.016Zm10 2.765a1.508 1.508 0 1 0 0-3.015 1.508 1.508 0 0 0 0 3.016Zm10.258 1.508a1.508 1.508 0 1 0 0-3.015 1.508 1.508 0 0 0 0 3.015Zm.335 9.219a1.508 1.508 0 1 0 0-3.015 1.508 1.508 0 0 0 0 3.015Zm-1.218 10.797a1.508 1.508 0 1 0 0-3.016 1.508 1.508 0 0 0 0 3.016Z" fill="#B9E4EA"/><path d="M49.688 93.281a1.508 1.508 0 1 0 0-3.015 1.508 1.508 0 0 0 0 3.015Z" fill="#EEE"/><path d="M58.531 89.063a1.508 1.508 0 1 0 0-3.016 1.508 1.508 0 0 0 0 3.016Zm8.079-7.813a1.508 1.508 0 1 0 0-3.016 1.508 1.508 0 0 0 0 3.016Zm6.304-8.937a1.508 1.508 0 1 0 0-3.016 1.508 1.508 0 0 0 0 3.016Zm4.578-9.586a1.508 1.508 0 1 0 0-3.016 1.508 1.508 0 0 0 0 3.016Zm3.594-11.211a1.508 1.508 0 1 0 0-3.016 1.508 1.508 0 0 0 0 3.016Z" fill="#B9E4EA"/><path d="M45.29 12.79a1.508 1.508 0 1 0-.001-3.017 1.508 1.508 0 0 0 0 3.016Zm-9.048 4.085a1.508 1.508 0 1 0 0-3.016 1.508 1.508 0 0 0 0 3.016Zm-10 2.765a1.508 1.508 0 1 0 0-3.015 1.508 1.508 0 0 0 0 3.016Zm-10.265 1.508a1.508 1.508 0 1 0 0-3.015 1.508 1.508 0 0 0 0 3.015Zm-.337 9.219a1.508 1.508 0 1 0 0-3.015 1.508 1.508 0 0 0 0 3.015Zm1.22 10.797a1.508 1.508 0 1 0 0-3.016 1.508 1.508 0 0 0 0 3.016Zm24.695 48.399a1.508 1.508 0 1 0 0-3.016 1.508 1.508 0 0 0 0 3.016Zm-8.071-7.813a1.508 1.508 0 1 0 0-3.016 1.508 1.508 0 0 0 0 3.016Zm-6.304-8.937a1.508 1.508 0 1 0 0-3.016 1.508 1.508 0 0 0 0 3.016Zm-4.586-9.586a1.508 1.508 0 1 0 0-3.016 1.508 1.508 0 0 0 0 3.016Zm-3.586-11.211a1.508 1.508 0 1 0 0-3.016 1.508 1.508 0 0 0 0 3.016Z" fill="#2F7889"/><path d="M44.953 12.29a1.508 1.508 0 1 0 0-3.016 1.508 1.508 0 0 0 0 3.015Zm-9.055 4.085a1.508 1.508 0 1 0 0-3.016 1.508 1.508 0 0 0 0 3.016Zm-9.992 2.765a1.508 1.508 0 1 0 0-3.015 1.508 1.508 0 0 0 0 3.016ZM15.64 20.648a1.508 1.508 0 1 0 0-3.015 1.508 1.508 0 0 0 0 3.015Zm-.335 9.219a1.508 1.508 0 1 0 0-3.015 1.508 1.508 0 0 0 0 3.015Zm1.218 10.797a1.508 1.508 0 1 0 0-3.016 1.508 1.508 0 0 0 0 3.016Zm24.696 48.399a1.508 1.508 0 1 0 0-3.016 1.508 1.508 0 0 0 0 3.016ZM33.14 81.25a1.508 1.508 0 1 0 0-3.016 1.508 1.508 0 0 0 0 3.016Zm-6.296-8.937a1.508 1.508 0 1 0 0-3.016 1.508 1.508 0 0 0 0 3.016Zm-4.586-9.586a1.508 1.508 0 1 0 0-3.016 1.508 1.508 0 0 0 0 3.016Zm-3.594-11.211a1.508 1.508 0 1 0 0-3.016 1.508 1.508 0 0 0 0 3.016Z" fill="#EEE"/></svg>