<svg width="142" height="142" fill="none" xmlns="http://www.w3.org/2000/svg"><rect x="1.414" y="70.711" width="98" height="98" rx="9" transform="rotate(-45 1.414 70.71)" fill="#363636" stroke="#7A7A7A" stroke-width="2"/><rect x="9.296" y="70.815" width="87" height="87" rx="6" transform="rotate(-45 9.296 70.815)" stroke="#7A7A7A" stroke-width="2"/><path d="M51.316 52h39.358c1.082 0 1.97-.898 1.97-2.002v-1.996c0-1.1-.883-2.002-1.97-2.002H51.316c-1.081 0-1.969.897-1.969 2.002v1.996c.005 1.104.888 2.001 1.97 2.001ZM95.99 67.938l-3.35-9.758v-2.178c0-1.1-.883-2.001-1.97-2.001H51.317c-1.082 0-1.97.897-1.97 2.001v2.178L46 67.938s-.03 2.048 1.995 2.048c.704 0 1.112-.352 1.352-.767v24.78c0 1.099.883 2.001 1.97 2.001h25.582V75.996h9.837v19.999h3.933c1.082 0 1.97-.897 1.97-2.002V69.22c.265.41.73.762 1.566.762 2.03.005 1.786-2.043 1.786-2.043Zm-31.464.187c0 1.56-1.245 2.83-2.786 2.83-1.51 0-2.735-1.228-2.78-2.747 0-.073.005-.14 0-.187v-.026h-.006c0-.026-.005-.062-.005-.062l1.312-7.938h4.949l-.704 7.938s0 .031.005.062h-.005c.01.047.02.088.02.13Zm-12.041 2.83c-1.541 0-2.786-1.27-2.786-2.83 0-.047.01-.083.015-.13h-.01v-.062l2.322-7.938h4.949l-1.72 7.943s0 .031.005.062h-.005c0 .042.016.083.016.13 0 1.56-1.25 2.826-2.786 2.826Zm18.51 19.04h-15.74v-14H71l-.005 14Zm0-19.04c-1.535 0-2.78-1.264-2.785-2.825 0-.015.005-.036.005-.052.005-.026.005-.057.01-.083h-.005v-.062l.3-7.938h4.95l.301 7.938v.062h-.005c0 .036.005.068.01.104v.031c.005 1.56-1.245 2.826-2.78 2.826Zm9.256 0c-1.531 0-2.766-1.254-2.786-2.799.005-.057.01-.114.01-.145v-.078l-.704-7.938h4.95l1.31 7.943s.005.031.005.062h-.015c0 .042.015.083.015.13 0 1.56-1.245 2.826-2.785 2.826Zm9.224 0c-1.5 0-2.709-1.207-2.775-2.71.03-.188.035-.312.035-.312l-1.714-7.938h4.95l2.32 7.938v.062h-.04c0 .042.015.083.015.13-.005 1.566-1.255 2.83-2.79 2.83Z" fill="#fff"/></svg>