<svg width="100" height="100" fill="none" xmlns="http://www.w3.org/2000/svg"><path d="M96.042 71.042c-.007-.08-.018-.174-.025-.243v-.008a10.832 10.832 0 0 1-.007-.059l-.012-.102v-.003c-.662-5.177-3.18-9.253-6.853-12.878l-.351.356.35-.356c-5.86-5.782-14.942-10.19-24.11-14.572l-.532-.255c-9.037-4.318-18.108-8.652-24.507-14.821-6.083-5.866-9.573-13.64-7.728-23.93l.104-.58-.59-.008a19.459 19.459 0 0 0-.432 0l-.495.004v.008c-4.234.167-7.691 1.95-10.448 4.784l75.748 65.726m-.112-3.063-.498.046.498-.046Zm0 0c.095 1.027.13 2.05.112 3.063m0 0-.488-.008.488.008ZM30.01 51.491C17.3 46.067 12.785 33.504 14.127 22.522c.68-5.56 2.905-10.675 6.278-14.142l9.603 43.111Zm0 0-.998 2.456c-11.984-5.1-17.452-16.206-17.739-26.898l-.023-.874-.742.464c-3.517 2.202-5.586 5.482-6.537 9.375-1.149 4.701-.542 10.296 1.566 15.51 4.159 10.288 13.931 19.046 27.075 17.48l.363 2.629c-9.138 1.103-16.892-2.379-22.503-7.938l-.49-.485-.308.616c-1.669 3.318-1.528 6.608-.142 9.856l.404-.172-.404.172c1.71 4.008 5.52 7.87 10.541 10.707 9.316 5.265 22.722 7.044 34.304 1.003l.352-.184-.1-.385c-1.025-3.962-.508-8.532 2.164-13.162 4.33-7.497 11.514-9.413 16.641-7.343 2.573 1.04 4.661 3.08 5.547 5.778l.465-.153-.465.153c.885 2.693.539 6.005-1.4 9.424-2.192 3.865-6.312 5.139-9.418 4.112-1.545-.511-2.897-1.694-3.362-3.348-.434-1.545-.096-3.372 1.05-5.282l2.212 1.46c-.824 1.402-.908 2.418-.716 3.104.215.763.764 1.257 1.643 1.548 1.753.58 4.67-.05 6.287-2.902 1.654-2.918 1.815-5.357 1.181-7.287-.632-1.925-2.09-3.374-4.016-4.153-3.874-1.564-9.525-.417-13.353 6.214-2.809 4.865-2.902 9.148-1.34 12.835l.017.04.023.035.278.433-.077.049.209.405.033.065c.039.075.081.158.124.237v.001c.394.72.853 1.416 1.377 2.077l.043.052.022.026c.081.102.166.202.246.297 2.317 2.749 5.693 4.891 9.474 6.069 4.838 1.507 10.308 1.432 14.978-.757l-.212-.453.212.453c4.685-2.196 8.622-6.438 10.562-13.678l-.483-.13-64.566-29.55Z" fill="#fff" stroke="#7A7A7A"/></svg>