<svg width="100" height="100" fill="none" xmlns="http://www.w3.org/2000/svg"><g clip-path="url(#Sword Icon__a)"><path d="M35.46 72.516c0-.553-.22-1.083-.61-1.474l-5.893-5.893a2.082 2.082 0 0 0-2.947 0L7.268 83.893a2.082 2.082 0 0 0 0 2.945l5.893 5.893a2.087 2.087 0 0 0 2.946 0L34.85 73.987c.391-.39.611-.919.611-1.471Z" fill="#ED5564"/><path d="M95.862 18.87c.274-.275.467-.625.555-1.005l3.531-15.313A2.093 2.093 0 0 0 99.39.61a2.08 2.08 0 0 0-1.941-.557L82.135 3.58a2.08 2.08 0 0 0-1.004.557L27.484 57.782a2.086 2.086 0 0 0 0 2.948L39.27 72.516a2.086 2.086 0 0 0 2.946 0l53.647-53.645Z" fill="#CCD1D9"/><path opacity=".2" d="M99.39.61a2.081 2.081 0 0 0-1.942-.556L82.135 3.58c-.382.089-.73.281-1.004.557L27.484 57.782a2.086 2.086 0 0 0 0 2.948L39.27 72.516a2.086 2.086 0 0 0 2.946 0l53.647-53.645c.274-.276.467-.626.555-1.006l3.531-15.313A2.093 2.093 0 0 0 99.39.61Zm-1.475 1.473-3.527 15.314-53.646 53.645-11.785-11.786L82.602 5.612l15.313-3.529Z" fill="#fff"/><path d="M33.376 66.623a2.086 2.086 0 0 1 0-2.948l37.742-37.74a2.082 2.082 0 1 1 2.945 2.947l-37.741 37.74a2.086 2.086 0 0 1-2.947 0Z" fill="#AAB2BC"/><path d="M15.088 76.071h17.677l2.084-2.084a2.079 2.079 0 0 0 .52-2.082H19.254l-4.167 4.166Zm13.007 4.672h-17.68l-3.147 3.15c-.29.29-.475.644-.559 1.016h17.218l4.168-4.166Z" fill="#DA4453"/><path d="M49.58 76.935 23.065 50.418a2.082 2.082 0 0 0-2.945 0l-4.42 4.42a2.082 2.082 0 0 0 0 2.944L42.214 84.3a2.083 2.083 0 0 0 2.946 0l4.42-4.419a2.083 2.083 0 0 0 0-2.945ZM16.666 91.666a8.286 8.286 0 0 0-2.44-5.893c-3.25-3.25-8.536-3.25-11.786 0A8.285 8.285 0 0 0 0 91.666c0 2.224.867 4.318 2.44 5.893A8.278 8.278 0 0 0 8.333 100a8.278 8.278 0 0 0 5.893-2.441 8.285 8.285 0 0 0 2.44-5.893Z" fill="#FFCE54"/><path d="M8.333 93.749a2.083 2.083 0 1 0-.001-4.167 2.083 2.083 0 0 0 .001 4.167Z" fill="#F6BB42"/></g><defs><clipPath id="Sword Icon__a"><path fill="#fff" d="M0 0h100v100H0z"/></clipPath></defs></svg>