<svg width="250" height="250" fill="none" xmlns="http://www.w3.org/2000/svg"><path d="M124.325 28.474c0 1.14-5.24 10.164-8.373 14.364-10.767 14.52-30.191 28.002-52.863 36.818-9.513 3.681-10.481 4.148-11.849 5.911-1.709 2.178-1.652 6.742.171 13.794 1.31 5.186 1.367 6.326 1.481 23.335.057 10.631.342 19.342.74 21.52 2.28 12.446 6.666 23.232 13.73 33.447 7.974 11.564 13.215 23.75 16.804 38.84l1.31 5.497 1.823-3.63c6.436-12.549 11.392-30.232 13.443-47.5.741-6.326.855-11.097.57-22.765-.171-8.141-.513-15.66-.741-16.749l-.455-1.971-13.102-4.978c-7.178-2.696-13.273-5.082-13.5-5.289-.513-.415-5.697-23.387-5.47-24.268.115-.415 8.83 2.644 23.47 8.141 12.76 4.822 23.412 8.919 23.583 9.075.171.155-1.652 8.867-4.044 19.342-2.45 10.475-4.387 19.394-4.387 19.809 0 .415 4.102 4.511 9.115 9.075l9.114 8.296 9.171-8.348 9.171-8.349-4.557-19.913c-2.506-10.941-4.557-19.912-4.5-19.964.627-.311 47.394-17.787 47.451-17.683.342.311-5.241 24.268-5.753 24.683-.285.26-6.266 2.645-13.273 5.29-7.006 2.644-12.931 5.185-13.216 5.652-.968 1.659-1.879 17.838-1.538 27.483.855 23.439 5.982 44.752 14.982 62.383 1.139 2.334 1.31 2.489 1.595 1.348.171-.674.854-3.681 1.481-6.689 2.62-11.512 8.602-25.306 15.608-35.781 12.077-17.942 15.665-30.543 14.925-52.374-.399-12.964.171-20.898 1.994-28.158.683-2.644 1.367-5.652 1.481-6.69.626-4.407-2.279-7.777-8.659-10.007-2.165-.778-7.804-3.112-12.532-5.186-20.165-9.023-35.603-20.587-45.799-34.328-2.507-3.423-7.462-12.031-7.462-13.016 0-.311-.228-.726-.57-.882-.285-.155-.57 0-.57.415Z" fill="#000"/><path d="M104.464 44.532c-10.937 4.356-21.817 10.371-31.786 17.735-6.038 4.407-18.058 14.882-17.374 15.09.911.31 8.544-2.334 14.697-5.03 6.323-2.749 15.665-8.194 21.361-12.446 7.52-5.6 19.824-17.164 18.115-17.06-.399 0-2.678.777-5.013 1.71Zm36.251-.881c1.082 1.867 10.082 10.164 15.38 14.26 6.665 5.082 16.235 10.942 23.127 14.105 5.925 2.697 14.412 5.652 15.324 5.29.854-.312-10.254-10.112-17.089-15.142-10.425-7.623-22.558-14.313-32.641-18.046-4.329-1.608-4.842-1.66-4.101-.467Z" fill="#000"/></svg>