<svg width="125" height="125" fill="none" xmlns="http://www.w3.org/2000/svg"><path d="M72.137 50.5c4.056-2.677 7.373-6.23 9.812-10.26a1.926 1.926 0 0 0-.025-2.05c-.4-.63-1.134-1.016-1.927-1.016H45.005c-.792 0-1.525.387-1.926 1.017-.4.63-.412 1.41-.026 2.049 2.44 4.03 5.755 7.583 9.812 10.26 4.19 2.765 7.488 4.002 9.636 4.002 2.148 0 5.446-1.237 9.637-4.002Z" fill="#000"/><path d="M100.67 104.005h-2.749v-5.698c0-11.994-7.243-24.457-19.375-33.34L74.493 62l4.053-2.967c12.132-8.88 19.375-21.344 19.375-33.339v-5.698h2.749c2.391 0 4.33-1.79 4.33-3.998 0-2.207-1.939-3.997-4.33-3.997H24.33C21.94 12 20 13.79 20 15.998s1.939 3.997 4.33 3.997h2.75v4.601c0 13.614 7.135 26.504 19.087 34.482l4.378 2.921-4.379 2.924C34.215 72.899 27.08 85.789 27.08 99.403v4.602h-2.75c-2.391 0-4.33 1.79-4.33 3.998 0 2.207 1.939 3.997 4.33 3.997h76.34c2.391 0 4.329-1.79 4.329-3.997.001-2.208-1.938-3.998-4.329-3.998Zm-67.095-4.601c0-11.696 6.13-22.77 16.398-29.621l4.565-3.049c1.64-1.095 2.62-2.864 2.62-4.735 0-1.87-.98-3.64-2.62-4.735l-4.566-3.046c-10.267-6.853-16.397-17.926-16.397-29.621v-1.675c0-1.616 1.42-2.926 3.17-2.926h51.511c1.75 0 3.17 1.31 3.17 2.926v2.772c0 10.18-6.323 20.887-16.914 28.64l-4.22 3.088c-1.523 1.116-2.395 2.784-2.395 4.578 0 1.794.872 3.463 2.396 4.578l4.218 3.089c10.592 7.754 16.915 18.46 16.915 28.64v2.772c0 1.616-1.42 2.926-3.17 2.926h-51.51c-1.751 0-3.17-1.31-3.17-2.926v-1.675Z" fill="#000"/><path d="M85.048 96.848c-4.774-7.731-16.815-15.256-22.547-15.256-5.732 0-17.773 7.525-22.548 15.256a1.923 1.923 0 0 0 .01 2.057c.399.636 1.136 1.025 1.931 1.025h41.213c.796 0 1.53-.39 1.93-1.026.4-.634.405-1.417.011-2.056Z" fill="#000"/></svg>