<svg width="60" height="60" fill="none" xmlns="http://www.w3.org/2000/svg"><path d="M23.531 1.875c1.125 2.156 1.969 4.406 2.813 6.656.843 2.25 1.5 4.594 2.062 6.844 1.125 4.688 1.875 9.375 2.157 14.25.28 4.781.093 9.656-.657 14.438-.656 4.78-1.875 9.562-3.562 14.156l-3.188-1.125c3.75-8.532 5.719-17.907 5.719-27.375 0-4.688-.375-9.469-1.313-14.063-.468-2.344-.937-4.687-1.687-6.937-.563-2.344-1.313-4.688-2.344-6.844Z" fill="#29557E"/><path d="M33.375 39.375c-4.875 2.063-4.5 6.844-4.5 6.844s3.656 4.125 8.438 2.062c3.375-1.406 7.593-7.968 7.593-7.968s-8.156-2.344-11.53-.938ZM30.75 23.156c-3.656 2.813-.563 6.094-.563 6.094s5.532 2.063 9.188-.656c2.531-1.875 2.25-7.688 2.25-7.688s-8.438.282-10.875 2.25Zm-1.875-12c-2.719 2.063-.375 4.594-.375 4.594s4.125 1.594 6.844-.563c1.875-1.406 1.687-5.812 1.687-5.812s-6.281.281-8.156 1.781Zm-1.5 20.063c4.594 2.062 2.063 5.812 2.063 5.812s-5.438 2.907-10.125.844C16.125 36.469 15 30.844 15 30.844s9.188-1.125 12.375.375Zm1.219-14.063c2.812 2.719-.094 4.875-.094 4.875s-4.781.844-7.594-1.875c-1.968-1.875-1.218-6.375-1.218-6.375s7.03 1.5 8.906 3.375Zm-.375-10.968c.937 2.437-1.688 3.187-1.688 3.187s-3.375-.563-4.312-3c-.657-1.688 1.312-4.5 1.312-4.5S27.562 4.5 28.22 6.188Z" fill="#3D88BD"/><path d="M29.438 36.938c-.47-.47-1.032-.75-1.594-1.032a32.333 32.333 0 0 0-1.782-.843c-1.218-.563-2.437-1.032-3.656-1.5l-3.656-1.407-1.875-.656L15 30.75c1.313.281 2.625.656 3.844 1.031 1.312.375 2.531.844 3.75 1.313a31.8 31.8 0 0 1 3.656 1.687c.563.282 1.125.657 1.688 1.032l.843.562c.188.094.469.281.657.563Zm-.844-15c-.282-.47-.469-.938-.75-1.313-.282-.469-.469-.844-.844-1.313a11.745 11.745 0 0 0-2.156-2.156c-1.594-1.312-3.375-2.343-5.157-3.375 1.97.656 3.938 1.688 5.532 3 .843.657 1.593 1.407 2.156 2.344.281.469.563.938.75 1.406.188.469.281.938.469 1.407Zm1.594 7.312c.28-.563.562-1.031.937-1.594l1.125-1.406a16.839 16.839 0 0 1 2.719-2.438c1.031-.75 2.062-1.312 3.187-1.875.563-.28 1.125-.468 1.688-.656.562-.187 1.218-.375 1.781-.468-1.125.468-2.25.937-3.281 1.5-1.032.562-2.063 1.218-3.094 1.875-.938.656-1.875 1.5-2.719 2.25-.843.937-1.687 1.875-2.343 2.812Zm-1.782-13.5c.282-.844.75-1.688 1.313-2.438a9.794 9.794 0 0 1 1.968-1.968 11.007 11.007 0 0 1 2.532-1.406 7.524 7.524 0 0 1 2.812-.563c-1.781.469-3.468 1.219-4.968 2.344-.75.562-1.407 1.125-1.97 1.781-.562.75-1.124 1.406-1.687 2.25Zm-1.875-6.375c-.375-1.313-.656-2.625-1.125-3.938-.468-1.312-1.031-2.437-1.875-3.562.563.375 1.032.938 1.5 1.5.375.563.657 1.219.938 1.875.187.656.375 1.313.468 2.063.094.656.094 1.406.094 2.062Zm2.438 36.938a11.19 11.19 0 0 1 1.5-1.5c.562-.47 1.218-.844 1.781-1.22 1.219-.75 2.625-1.312 4.031-1.78 1.407-.47 2.813-.75 4.313-.938.75-.094 1.5-.188 2.156-.281.75-.094 1.5-.094 2.156-.094-.75.094-1.406.188-2.156.375-.75.094-1.406.281-2.156.375-1.407.281-2.813.656-4.219 1.031-1.406.469-2.719.938-4.031 1.594-1.125.656-2.344 1.406-3.375 2.438Z" fill="#29557E"/></svg>