<svg width="60" height="60" fill="none" xmlns="http://www.w3.org/2000/svg"><path d="M48.443 39.036c-.269-2.777-1.068-5.677-2.311-8.387a32.231 32.231 0 0 0-4.396-7.01 28.083 28.083 0 0 0-1.276-1.479l-.607-.663a7.444 7.444 0 0 0-.396-.427l-.182-.184a9.106 9.106 0 0 1-.615-.663 9.405 9.405 0 0 0-.27-.282c-.129-.131-.275-.277-.406-.44-.016-.021-.034-.041-.051-.061a43.034 43.034 0 0 1-2.378-2.825c-.79-1.04-1.348-1.9-1.812-2.796a12.858 12.858 0 0 1-1.193-3.387c-.24-1.113-.381-2.39-.42-3.8-.037-1.253.04-2.456.119-3.46.057-.669.121-1.26.184-1.783A1.24 1.24 0 0 0 30.888.041c-.591.155-1.198.36-1.798.607-1.26.514-2.5 1.23-3.687 2.128a17.42 17.42 0 0 0-3.941 4.215c-1.352 2.013-2.308 4.381-2.765 6.84-.522 2.705-.464 5.757.16 8.59.594 2.742 1.743 5.541 3.328 8.105.838 1.335 1.64 2.451 2.435 3.388.237.295.89 1.056.896 1.065l.26.298c.183.206.313.362.446.52.123.147.224.268.336.388l.02.02c1.24 1.483 2.114 2.572 2.836 3.535a39.397 39.397 0 0 1 2.143 3.141c.686 1.125 1.176 2.108 1.542 3.091a14.51 14.51 0 0 1 .81 3.606c.117 1.124.117 2.384.004 3.844a35.961 35.961 0 0 1-.483 3.418c-.122.605-.24 1.164-.35 1.646a1.24 1.24 0 0 0 1.448 1.49 13.048 13.048 0 0 0 1.697-.451 16.548 16.548 0 0 0 3.796-1.818 17.514 17.514 0 0 0 4.25-3.815c1.499-1.853 2.669-4.077 3.383-6.43.802-2.618 1.076-5.533.79-8.426Z" fill="#A02B2B"/><path d="M24.132 46.63a14.705 14.705 0 0 0-2.006-3.2 14.04 14.04 0 0 0-.572-.664l-.286-.313a4.972 4.972 0 0 0-.186-.2l-.078-.078a4.408 4.408 0 0 1-.3-.323l-.108-.112c-.062-.064-.124-.127-.177-.193a19.488 19.488 0 0 1-1.112-1.319 8.973 8.973 0 0 1-.832-1.284 5.893 5.893 0 0 1-.545-1.547 9.53 9.53 0 0 1-.19-1.732 13.63 13.63 0 0 1 .038-1.372 1.24 1.24 0 0 0-1.77-1.208 7.8 7.8 0 0 0-3.137 2.743 8.378 8.378 0 0 0-1.263 3.119c-.239 1.238-.213 2.633.072 3.924.271 1.253.796 2.532 1.522 3.707.382.608.748 1.117 1.1 1.532.104.129.328.389.428.505l-.002.002.11.125c.088.098.15.172.21.245.052.063.096.116.138.16l.02.02c.382.457.875 1.054 1.296 1.616.365.486.685.955.977 1.434.312.51.535.958.702 1.407.189.51.313 1.066.371 1.652.053.512.053 1.087.002 1.746-.034.39-.089.804-.167 1.262a1.24 1.24 0 0 0 1.688 1.358 7.79 7.79 0 0 0 1.262-.657 7.99 7.99 0 0 0 1.945-1.745 8.755 8.755 0 0 0 1.544-2.934c.361-1.18.489-2.547.361-3.847a12.155 12.155 0 0 0-1.055-3.829Z" fill="#D82727"/></svg>