<svg width="60" height="60" fill="none" xmlns="http://www.w3.org/2000/svg"><path d="M49.55 9.011c-2.069 2.498-4.172 4.333-7.367 2.401-2.815-1.7-4.82-3.9-8.39-3.549-2.781.272-5.04 2.605-5.83 5.163a3.79 3.79 0 0 0-.15 1.146 7.917 7.917 0 0 0-5.858 2.389l-.062-.046L1.768 43.588l.015.01c-.073.088-.15.171-.22.266a7.914 7.914 0 0 0 12.702 9.442c.07-.094.127-.192.19-.287l.015.011 20.125-27.072-.061-.046c1.9-3.417 1.029-7.791-2.193-10.186a7.845 7.845 0 0 0-2.479-1.235c.01-1.352.72-2.537 1.744-3.455 1.62-1.45 3.772-1.38 5.645-.524 2.68 1.226 4.58 4.087 7.838 3.89 2.674-.162 4.517-2.227 6.119-4.159.85-1.026-.811-2.253-1.657-1.232Zm-19.484 7.043c.487.214.966.484 1.42.822 2.64 1.963 3.498 5.277 1.917 7.404-1.58 2.127-5.003 2.26-7.643.298-2.641-1.963-3.498-5.278-1.917-7.405.919-1.236 2.46-1.793 4.109-1.663.313 1.764.949 3.571-.201 4.948-.854 1.023.806 2.25 1.656 1.231 1.434-1.715 1.022-3.658.659-5.635Zm18.35-9.133L46.75 3.5l2.255 3.064-.59.356Zm6.848-1.704L52.69 8.299l-.488-.486 3.063-2.596ZM60 15.088l-7.015-3.566.338-.6L60 15.089Zm-7.77-2.871.163 8.951-.85-8.912.688-.04Z" fill="#BE3636"/><rect x="25.441" y="32" width="1.895" height="26.03" rx=".948" transform="rotate(36.386 25.441 32)" fill="#872323"/></svg>