<svg width="60" height="60" fill="none" xmlns="http://www.w3.org/2000/svg"><path opacity=".75" d="m23.96 49.528-.2-36.35a.823.823 0 0 0-.037-.19c-.142-.523-.441-.856-.895-1.242-.771-.65-.992-1.2-.907-1.798.11-.794 1.755-2.301 7.678-2.333 5.923-.032 7.58 1.457 7.698 2.25.091.597-.125 1.146-.887 1.808-.45.39-.748.724-.882 1.25a.728.728 0 0 0-.034.19l.2 36.352c.028 4.993-2.75 7.011-5.806 7.028h-.04c-3.062.02-5.863-1.97-5.888-6.965Z" fill="#B4D4E2"/><path opacity=".39" d="M28.918 10.42c-3.212.018-5.237.441-6.476.963.11.117.236.242.383.366.325.273.566.525.732.832 1.23-.372 2.948-.664 5.328-.755 3.423-.128 5.518.263 6.753.782.145-.316.365-.568.66-.837-1.058-.702-3.243-1.376-7.38-1.35Z" fill="#8BA0DE"/><path d="m23.813 22 .169 27.43c.026 5.181 2.812 7.26 5.852 7.243 3.037-.019 5.803-2.115 5.774-7.308L35.543 22h-11.73Z" fill="#90E9EF"/><path d="M35.5 22c0 .552-2.819 1-6 1s-5.75-.448-5.75-1 2.569-1 5.75-1 6 .448 6 1Z" fill="#D3F9FE"/><path d="M30.101 38.813a1.779 1.779 0 0 0-.014-2.531 1.819 1.819 0 0 0-2.555.014 1.778 1.778 0 0 0 .014 2.531c.71.696 1.854.69 2.555-.014Z" fill="#BDF8FC"/><path opacity=".69" d="M31.653 26.297a1.03 1.03 0 0 0-.008-1.465 1.053 1.053 0 0 0-1.48.008 1.03 1.03 0 0 0 .009 1.465c.41.403 1.073.4 1.48-.008Z" fill="#BDF8FC"/><path d="M32.248 33.906a1.406 1.406 0 0 0-.01-2 1.438 1.438 0 0 0-2.02.01 1.406 1.406 0 0 0 .01 2.001c.561.55 1.465.545 2.02-.01Zm-2.368-4.609a.541.541 0 0 0-.004-.771.553.553 0 0 0-.778.004.541.541 0 0 0 .004.77c.216.212.564.21.778-.003Z" fill="#BDF8FC"/><path opacity=".6" d="M25.09 9.948a15.117 15.117 0 0 1 4.065-.32" stroke="#fff" stroke-width="1.966" stroke-miterlimit="10" stroke-linecap="round"/><path d="M27.16 52.565c-.612.256-.936-.41-.942-.923l-.64-34.215c-.047-2.086.164-3.745 1.198-3.776 1.157-.036 1.984 1.148 1.768 5.519l-.713 31.485c.002.255-.059 1.654-.67 1.91Z" fill="#fff" opacity=".6"/><path d="M20.29 27.1c-.778-1.988-1.332-2.55-3.29-3.34v-1.42c1.958-.79 2.512-1.352 3.29-3.34h1.398c.778 1.988 1.332 2.55 3.29 3.34v1.42c-1.958.79-2.512 1.351-3.29 3.34H20.29Z" fill="#FFDA44"/><path d="M21.688 19H20.29c-.778 1.988-1.332 2.55-3.29 3.34v1.42c1.958.79 2.512 1.351 3.29 3.34h1.398c.778-1.988 1.332-2.55 3.29-3.34v-1.42c-1.958-.79-2.512-1.352-3.29-3.34Zm-.699 6.025c-.501-.878-1.08-1.466-1.945-1.975.864-.509 1.444-1.097 1.945-1.975.501.878 1.08 1.466 1.945 1.975-.864.509-1.444 1.097-1.945 1.975Z" fill="#000"/><path d="M17.362 34.616c-.547-1.398-.91-1.766-2.287-2.322v-1.42c1.377-.554 1.74-.923 2.287-2.321h1.398c.547 1.398.91 1.767 2.287 2.322v1.42c-1.377.554-1.74.923-2.287 2.321h-1.398Z" fill="#FFDA44"/><path d="M18.76 28.553h-1.398c-.547 1.398-.91 1.766-2.287 2.322v1.42c1.377.554 1.74.923 2.287 2.32h1.398c.547-1.397.91-1.766 2.287-2.32v-1.42c-1.377-.556-1.74-.924-2.287-2.322Zm-.699 4.087a3.774 3.774 0 0 0-1.04-1.055 3.789 3.789 0 0 0 1.04-1.056c.287.43.616.765 1.04 1.056-.424.29-.753.625-1.04 1.055Z" fill="#000"/><path d="M37.685 47.063h-1.398c-.547-1.398-.91-1.767-2.287-2.322v-1.42c1.377-.555 1.74-.923 2.287-2.321h1.398c.547 1.398.91 1.766 2.287 2.322v1.42c-1.377.555-1.74.923-2.287 2.321Z" fill="#FFDA44"/><path d="M37.685 41h-1.398c-.547 1.398-.91 1.767-2.287 2.322v1.42c1.377.555 1.74.923 2.287 2.321h1.398c.547-1.398.91-1.767 2.287-2.322v-1.42c-1.377-.554-1.74-.923-2.287-2.321Zm-.7 4.087a3.775 3.775 0 0 0-1.039-1.055 3.789 3.789 0 0 0 1.04-1.056c.286.43.616.765 1.04 1.056-.424.29-.754.625-1.04 1.055Z" fill="#000"/><path d="M42.685 53.063h-1.398c-.547-1.398-.91-1.767-2.287-2.322v-1.42c1.377-.555 1.74-.923 2.287-2.321h1.398c.547 1.398.91 1.766 2.287 2.322v1.42c-1.377.555-1.74.923-2.287 2.321Z" fill="#FFDA44"/><path d="M42.685 47h-1.398c-.547 1.398-.91 1.767-2.287 2.322v1.42c1.377.555 1.74.923 2.287 2.321h1.398c.547-1.398.91-1.767 2.287-2.322v-1.42c-1.377-.554-1.74-.923-2.287-2.321Zm-.7 4.087a3.775 3.775 0 0 0-1.039-1.055 3.789 3.789 0 0 0 1.04-1.056c.286.43.616.765 1.04 1.056-.424.29-.754.625-1.04 1.055Z" fill="#000"/><path d="M13.685 28.608h-1.398c-.547-1.398-.91-1.767-2.287-2.322v-1.42c1.377-.555 1.74-.924 2.287-2.321h1.398c.547 1.397.91 1.766 2.287 2.322v1.42c-1.377.554-1.74.923-2.287 2.32Z" fill="#FFDA44"/><path d="M15.972 24.867c-1.377-.556-1.74-.925-2.287-2.322h-1.398c-.547 1.397-.91 1.766-2.287 2.322v1.42c1.377.554 1.74.923 2.287 2.32h1.398c.547-1.397.91-1.766 2.287-2.32v-1.42Zm-2.986 1.765a3.77 3.77 0 0 0-1.04-1.056c.424-.29.753-.625 1.04-1.055.286.43.616.765 1.04 1.055a3.789 3.789 0 0 0-1.04 1.056Z" fill="#000"/><path d="M45.09 45.105h-1.4c-.778-1.988-1.332-2.55-3.29-3.34v-1.42c1.958-.79 2.512-1.352 3.29-3.34h1.398c.778 1.988 1.332 2.55 3.29 3.34v1.42c-1.958.79-2.512 1.352-3.29 3.34Z" fill="#FFDA44"/><path d="M45.09 37.005h-1.4c-.778 1.988-1.332 2.55-3.29 3.34v1.42c1.958.79 2.512 1.352 3.29 3.34h1.398c.778-1.988 1.332-2.55 3.29-3.34v-1.42c-1.958-.79-2.512-1.352-3.29-3.34Zm-.7 6.025c-.5-.878-1.08-1.466-1.945-1.975.865-.508 1.444-1.097 1.945-1.975.501.878 1.08 1.466 1.945 1.975-.864.509-1.444 1.097-1.945 1.975Z" fill="#000"/></svg>