<svg width="60" height="60" fill="none" xmlns="http://www.w3.org/2000/svg"><path d="M39.778 57H20.876c-.852 0-1.55-.638-1.55-1.418V21.418c0-.78.698-1.418 1.55-1.418h18.902c.852 0 1.549.638 1.549 1.418v34.164c0 .78-.697 1.418-1.549 1.418Z" fill="#3C66B1"/><path d="M40.072 19.53H20.596c-.878 0-1.596-.646-1.596-1.436V14.7c0-.79.718-1.436 1.596-1.436h19.476c.877 0 1.595.647 1.595 1.436v3.395c0 .79-.718 1.436-1.596 1.436Z" fill="#315591"/><path opacity=".43" d="M40.072 23.344H20.596c-.878 0-1.596-.646-1.596-1.436v-.942c0-.79.718-1.436 1.596-1.436h19.476c.877 0 1.595.647 1.595 1.436v.942c0 .79-.718 1.436-1.596 1.436Z" fill="#315591"/><path d="M35.948 13.263H24.719V9.568c0-.79.718-1.436 1.596-1.436h8.037c.878 0 1.596.646 1.596 1.436v3.695ZM31.815 3h-2.963c-.436 0-.789.318-.789.71l-.006 2.955h4.541l.006-2.954c0-.393-.353-.711-.79-.711Z" fill="#4E8FE3"/><path d="M27.484 28h7.785c.29 0 .493.245.401.482l-1.779 4.564c-.092.237.112.482.402.482h2.61c.354 0 .552.353.331.592l-8.982 9.74c-.277.3-.834.077-.746-.3l1.256-5.353c.053-.227-.147-.438-.415-.438H24.75c-.277 0-.48-.226-.41-.457l2.734-9.039c.049-.16.217-.273.41-.273Z" fill="#FFF5CC"/><path d="M32.327 6h-4v2h4V6Z" fill="#315591"/><path opacity=".09" d="m41.327 37.425-22 5.575v-9.425l22-5.575v9.425Z" fill="#fff"/></svg>