<svg width="60" height="60" fill="none" xmlns="http://www.w3.org/2000/svg"><path d="M19 22.186h16.227c.115 0 .191.082.191.206 0 .123-.076.206-.19.206H19v30.515h16.227c.115 0 .191.083.191.207 0 .123-.076.206-.19.206H19C19 54.763 20.03 56 21.253 56h16.494C38.97 56 40 54.722 40 53.36V22.187C40 18.639 36.296 16 35.876 16H23.047c-.496.412-3.97 2.474-4.047 6.186Z" fill="#EDEDED"/><path d="M36 16h-2v40h2V16Z" fill="#E4E3E3"/><path d="M32.727 10.846V6.462c0-.885-.69-1.462-1.49-1.462h-2.473c-.837 0-1.491.577-1.491 1.462v4.307h3.49c.11 0 .182.077.182.192 0 .116-.072.193-.181.193H25.49c-.837 0-1.491.577-1.491 1.461V15h12v-2.385c0-.884-.69-1.461-1.527-1.461h-1.6c-.073 0-.146-.193-.146-.308Z" fill="#969797"/><path d="M38.193 57H21.807C20.327 57 19 55.451 19 53.693V22.05c0-4.186 4.172-6.864 4.362-6.99.19-.126.417-.042.531.167.114.21.038.46-.152.586-.038.042-3.982 2.554-3.982 6.237v31.644c0 1.298.986 2.47 2.048 2.47h16.386c1.214 0 2.048-1.298 2.048-2.47V22.05c0-3.683-4.02-6.237-4.058-6.237a.447.447 0 0 1-.152-.586c.114-.209.341-.293.531-.167.19.126 4.438 2.804 4.438 6.99v31.644c0 1.8-1.29 3.307-2.807 3.307Z" fill="#000"/><path d="M36.611 16H23.39c-.233 0-.389-.165-.389-.414v-2.772c0-1.242.972-2.193 2.178-2.193H26.5V6.193C26.5 4.952 27.472 4 28.678 4h2.644c1.206 0 2.178.952 2.178 2.193v4.428h1.283c1.284 0 2.217.951 2.217 2.193v2.772c0 .248-.156.414-.389.414Zm-12.833-.828h12.444v-2.358c0-.786-.583-1.366-1.439-1.366h-1.672c-.233 0-.389-.165-.389-.414v-4.84c0-.787-.622-1.366-1.4-1.366h-2.644c-.778 0-1.4.579-1.4 1.365v4.841c0 .249-.156.414-.39.414h-1.71c-.778 0-1.4.58-1.4 1.366v2.358Z" fill="#000"/><path d="M30.667 12h-3.334c-.2 0-.333-.2-.333-.5s.133-.5.333-.5h3.334c.2 0 .333.2.333.5s-.133.5-.333.5Zm4.955 42H19.378c-.227 0-.378-.2-.378-.5s.151-.5.378-.5h16.244c.227 0 .378.2.378.5s-.151.5-.378.5Zm0-31H19.378c-.227 0-.378-.2-.378-.5s.151-.5.378-.5h16.244c.227 0 .378.2.378.5s-.151.5-.378.5Z" fill="#000"/><path d="M32.971 34.53h-1.428c-.148 0-.267-.13-.267-.291v-1.553c0-.16-.12-.29-.268-.29h-.988c-.148 0-.268.13-.268.29v1.553c0 .16-.12.291-.267.291h-1.428c-.148 0-.268.13-.268.292v1.073c0 .161.12.292.268.292h1.428c.148 0 .267.13.267.29v1.553c0 .161.12.292.268.292h.988c.148 0 .268-.13.268-.292v-1.552c0-.161.12-.291.267-.291h1.428c.148 0 .268-.13.268-.292v-1.073c0-.161-.12-.292-.268-.292Z" fill="#1C8553"/><path d="M30.514 28.733c-3.365 0-6.092 2.966-6.092 6.625 0 3.66 2.727 6.625 6.092 6.625 3.364 0 6.092-2.966 6.092-6.625 0-3.658-2.728-6.625-6.092-6.625Zm0 11.594c-2.52 0-4.57-2.229-4.57-4.969s2.05-4.968 4.57-4.968c2.52 0 4.569 2.229 4.569 4.968 0 2.74-2.05 4.97-4.57 4.97Z" fill="#1C8553"/><ellipse cx="30.108" cy="7.533" rx="1.625" ry="1.767" fill="#0C4821"/><ellipse cx="30.108" cy="7.533" rx=".812" ry=".883" fill="#969797"/></svg>