<svg width="60" height="60" fill="none" xmlns="http://www.w3.org/2000/svg"><path d="M51.455 7.35a2.184 2.184 0 1 0 0-4.369 2.184 2.184 0 0 0 0 4.369Z" fill="#BF000B"/><path opacity=".75" d="m5.358 42.699 34.06-34.06a1.18 1.18 0 0 0 .145-.21c.36-.62.398-1.21.342-1.993-.099-1.327.215-2.044.858-2.522.848-.637 3.787-.506 9.285 4.992 5.499 5.499 5.625 8.433 4.988 9.281-.478.643-1.195.952-2.522.858-.783-.056-1.373-.023-1.992.342a.978.978 0 0 0-.211.146l-34.06 34.06c-4.678 4.677-9.145 3.965-11.98 1.129l-.02-.019-.018-.019C1.388 51.844.675 47.377 5.358 42.7Z" fill="#81D4FA"/><path opacity=".39" d="M46.777 10.884c-2.982-2.98-5.25-4.476-6.886-5.147-.01.211-.01.446.01.699.041.558.027 1.017-.109 1.458 1.486.801 3.347 2.133 5.63 4.27 3.281 3.075 4.847 5.395 5.498 7.031.432-.16.872-.187 1.397-.164-.314-1.64-1.697-4.308-5.54-8.147Z" fill="#1D44B3"/><path d="M25.383 22.739 5.47 42.629c-4.856 4.85-4.242 9.388-1.42 12.21 2.822 2.817 7.35 3.445 12.216-1.42L47.812 22.05l-22.43.689Z" fill="url(#All-Mix__a)"/><path d="M21.122 38.447a2.372 2.372 0 1 0 0-4.744 2.372 2.372 0 0 0 0 4.744Z" fill="#425B81"/><path d="M45.272 19.594a2.231 2.231 0 1 0 0-4.463 2.231 2.231 0 0 0 0 4.463Z" fill="#BF000B"/><path opacity=".69" d="M34.345 28.233a1.373 1.373 0 1 0 0-2.747 1.373 1.373 0 0 0 0 2.747Z" fill="#97C5E7"/><path d="M57.112 6.647a1.017 1.017 0 1 0 0-2.035 1.017 1.017 0 0 0 0 2.035Z" fill="#BF000B"/><path d="M27.727 35.878a1.875 1.875 0 1 0 0-3.75 1.875 1.875 0 0 0 0 3.75Z" fill="#48657A"/><path d="M29.883 29.372a.722.722 0 1 0 0-1.444.722.722 0 0 0 0 1.444Z" fill="#659EC6" fill-opacity=".8"/><path opacity=".6" d="M43.688 6.872a19.67 19.67 0 0 1 4.054 3.497" stroke="#fff" stroke-width="1.966" stroke-miterlimit="10" stroke-linecap="round"/><path d="M47.822 22.012c-.394.347-1.674.577-5.04 1.102-1.785.281-3.97.563-6.477.769-7.861.651-13.163-.422-10.017-1.706 2.526-1.032 11.498-.807 17.114-.629 2.709.09 4.73.197 4.42.465Z" fill="#F30B0B"/><path d="M5.452 48.516c-.807-.333-.478-1.257 0-1.74l31.64-32.48c1.922-1.987 3.68-3.337 4.664-2.4 1.102 1.046.75 2.921-3.567 6.793L7.87 47.362c-.239.24-1.612 1.486-2.418 1.154Z" fill="#fff" opacity=".6"/><defs><linearGradient id="All-Mix__a" x1="34.5" y1="25" x2="7.5" y2="52" gradientUnits="userSpaceOnUse"><stop offset=".036" stop-color="#BF000B"/><stop offset=".714" stop-color="#094067"/><stop offset="1" stop-color="#00BFA5"/></linearGradient></defs></svg>