<svg width="60" height="60" fill="none" xmlns="http://www.w3.org/2000/svg"><path d="M51.455 7.35a2.184 2.184 0 1 0 0-4.369 2.184 2.184 0 0 0 0 4.369Z" fill="#00BFA5"/><path opacity=".75" d="m5.358 42.699 34.06-34.06a1.18 1.18 0 0 0 .145-.21c.36-.62.398-1.21.342-1.993-.099-1.327.215-2.044.858-2.522.848-.637 3.787-.506 9.285 4.992 5.499 5.499 5.625 8.433 4.988 9.281-.478.643-1.195.952-2.522.858-.783-.056-1.373-.023-1.992.342a.978.978 0 0 0-.211.146l-34.06 34.06c-4.678 4.677-9.145 3.965-11.98 1.129l-.02-.019-.018-.019C1.388 51.844.675 47.377 5.358 42.7Z" fill="#81D4FA"/><path opacity=".39" d="M46.777 10.884c-2.982-2.98-5.25-4.476-6.886-5.147-.01.211-.01.446.01.699.041.558.027 1.017-.109 1.458 1.486.801 3.347 2.133 5.63 4.27 3.281 3.075 4.847 5.395 5.498 7.031.432-.16.872-.187 1.397-.164-.314-1.64-1.697-4.308-5.54-8.147Z" fill="#1D44B3"/><path d="m14 34-8.53 8.628C.614 47.48 1.228 52.018 4.05 54.84c2.822 2.817 7.35 3.445 12.216-1.42L36 34H14Z" fill="url(#Green-2-Mix__a)"/><path d="M14.372 47.744a2.372 2.372 0 1 0 0-4.744 2.372 2.372 0 0 0 0 4.744Z" fill="#00EDCD"/><path d="M33.522 30.462a2.231 2.231 0 1 0 0-4.462 2.231 2.231 0 0 0 0 4.462ZM40 26a1 1 0 1 0 0-2 1 1 0 0 0 0 2Z" fill="#00BFA5"/><path opacity=".69" d="M22.595 39.102a1.373 1.373 0 1 0 0-2.747 1.373 1.373 0 0 0 0 2.747Z" fill="#00EDCD"/><path d="M57.112 6.647a1.017 1.017 0 1 0 0-2.035 1.017 1.017 0 0 0 0 2.035Z" fill="#00BFA5"/><path d="M18.133 40.24a.722.722 0 1 0 0-1.443.722.722 0 0 0 0 1.444Z" fill="#00EDCD"/><path opacity=".6" d="M43.688 6.872a19.67 19.67 0 0 1 4.054 3.497" stroke="#fff" stroke-width="1.966" stroke-miterlimit="10" stroke-linecap="round"/><path d="M36 34c-.385.388-1.668.334-4.96.921a76.125 76.125 0 0 1-6.339.86C17.011 36.509 12 35 14.47 33.69c2.472-1.153 11.682-.718 17.176-.52 2.65.1 4.658.531 4.355.83Z" fill="#00EDCD"/><path d="M5.452 48.516c-.807-.333-.478-1.257 0-1.74l31.64-32.48c1.922-1.987 3.68-3.337 4.664-2.4 1.102 1.046.75 2.921-3.567 6.793L7.87 47.362c-.239.24-1.612 1.486-2.418 1.154Z" fill="#fff" opacity=".6"/><defs><linearGradient id="Green-2-Mix__a" x1="24" y1="36.5" x2="10.5" y2="51" gradientUnits="userSpaceOnUse"><stop offset=".188" stop-color="#00BFA5"/><stop offset="1" stop-color="#00BFA5"/></linearGradient></defs></svg>