<svg width="60" height="60" fill="none" xmlns="http://www.w3.org/2000/svg"><path d="M30 42.5 22.5 50m7.5-7.5 7.5 7.5M30 42.5V30m0 12.5v10M30 30V17.5M30 30l-10.825-6.25M30 30l10.825 6.25M30 30l-10.825 6.25M30 30l10.825-6.25M30 17.5 22.5 10m7.5 7.5 7.5-7.5M30 17.5v-10M19.175 23.75 8.929 26.495m10.246-2.745-2.746-10.245m2.746 10.245-8.66-5m30.31 17.5 2.745 10.245M40.825 36.25l10.245-2.745M40.825 36.25l8.66 5m-30.31-5-2.746 10.245m2.746-10.245L8.929 33.505m10.246 2.745-8.66 5m30.31-17.5 10.245 2.745M40.825 23.75l2.745-10.245M40.825 23.75l8.66-5" stroke="#3178B9" stroke-width="3.75" stroke-linecap="round" stroke-linejoin="round"/></svg>