<svg width="60" height="60" fill="none" xmlns="http://www.w3.org/2000/svg"><path d="m29.954 51-.43-.351c-.053-.046-5.42-4.488-10.72-10.1-3.12-3.304-5.605-6.367-7.392-9.098C9.15 27.99 8 25.03 8 22.658c0-4.981 2.285-9.67 6.441-13.195C18.597 5.938 24.126 4 30 4c5.874 0 11.403 1.938 15.559 5.463C49.715 12.988 52 17.677 52 22.658c0 2.374-1.15 5.333-3.428 8.793-1.794 2.731-4.294 5.794-7.43 9.098-5.322 5.612-10.72 10.054-10.774 10.1l-.414.351Zm.054-45.966c-11.457 0-20.773 7.902-20.773 17.618 0 3.973 3.642 9.937 10.528 17.234 4.394 4.65 8.834 8.493 10.199 9.65 1.372-1.157 5.835-5 10.252-9.65 6.917-7.297 10.575-13.254 10.575-17.228-.008-9.716-9.325-17.624-20.781-17.624Z" fill="#FFD366"/><path d="M35.753 52.57a3.226 3.226 0 0 0-3.228-3.228c-.982 0-1.864.441-2.454 1.138a3.208 3.208 0 0 0-2.453-1.138 3.226 3.226 0 0 0-3.229 3.229c0 .938.427 1.713 1.032 2.368l4.664 4.48 4.58-4.43c.583-.612 1.088-1.458 1.088-2.418Z" fill="#FF6B6A"/><path d="M26.466 53.21a.38.38 0 0 1-.363-.27 1.723 1.723 0 0 1 .52-1.692c.305-.284.71-.405 1.173-.348a.38.38 0 0 1 .327.42.38.38 0 0 1-.42.326c-.241-.028-.42.022-.561.15-.456.426-.313.931-.313.938a.383.383 0 0 1-.256.47c-.036 0-.072.007-.107.007Z" fill="#fff"/></svg>