<svg width="60" height="60" fill="none" xmlns="http://www.w3.org/2000/svg"><path d="M28.828 20.05h11.356a18.937 18.937 0 0 1 2.308 3.13H17.496a20.372 20.372 0 0 1 2.309-3.13h3.75v-.878h5.273v.879Zm11.039 9.774h5.32a27.11 27.11 0 0 1 .563 3.13h-31.5c.129-1.056.316-2.11.563-3.13h19.78v-.879h5.274v.88Zm-13.676 9.762H45.75a27.731 27.731 0 0 1-.563 3.129H14.814a27.267 27.267 0 0 1-.563-3.13h6.668v-.878h5.273v.879Zm13.676 9.774h2.637a20.376 20.376 0 0 1-2.309 3.128H19.816a18.946 18.946 0 0 1-2.308-3.129h17.098v-.879h5.273v.88h-.012Z" fill="#4CC3F2"/><path d="M27.07 18.293h-1.758v1.758h1.758v-1.758Zm11.04 9.773h-1.758v1.758h1.757v-1.758Zm-13.676 9.762h-1.758v1.758h1.758v-1.758Z" fill="#0A557F"/><path d="M31.57 2.637h-3.129v4.488h3.13V2.637Z" fill="#4CC3F2"/><path d="m50.25 33.762-.059-.809h-2.66a28.116 28.116 0 0 0-.527-3.129h2.719l-.27-1.09a29.012 29.012 0 0 0-1.723-5.039l-.234-.515h-2.965a22.444 22.444 0 0 0-2.039-3.13h3.328l-1.078-1.417-.035-.047c-1.582-2.063-3.387-3.75-5.402-5.04l-.211-.14H26.156V8.883h7.7v2.777h1.757V7.125h-2.285V5.754h2.695a2.654 2.654 0 0 0 2.485 1.758 2.64 2.64 0 0 0 2.636-2.637 2.64 2.64 0 0 0-2.636-2.637 2.63 2.63 0 0 0-2.485 1.758h-2.695V.88h-6.644v6.246h-2.286v6.293H20.93l-.211.14c-2.004 1.29-3.82 2.977-5.403 5.04l-1.113 1.465h3.328c-.75.96-1.43 2.003-2.039 3.128h-2.965l-.234.516a28.68 28.68 0 0 0-1.723 5.04l-.27 1.089h2.708a27.67 27.67 0 0 0-.527 3.129H9.82l-.06.808a35.869 35.869 0 0 0-.093 2.508c0 .832.035 1.676.094 2.508l.058.809h2.66a28.12 28.12 0 0 0 .528 3.129h-2.719l.27 1.09a29.012 29.012 0 0 0 1.722 5.038l.235.516h2.964a22.444 22.444 0 0 0 2.04 3.129H14.19l1.079 1.418.035.047c1.582 2.062 3.398 3.75 5.402 5.039l.211.14H39.07l.211-.14c2.004-1.29 3.82-2.977 5.403-5.04l1.113-1.464h-3.328c.75-.96 1.43-2.004 2.039-3.129h2.965l.234-.516a28.68 28.68 0 0 0 1.723-5.039l.27-1.09h-2.708a27.7 27.7 0 0 0 .528-3.128h2.66l.058-.809a35.862 35.862 0 0 0 .012-5.027ZM38.508 3.996a.878.878 0 1 1 0 1.758.878.878 0 1 1 0-1.758ZM28.44 2.636h3.13v4.489h-3.13V2.637Zm-8.625 17.415h3.739v-1.758h-5.72a18.85 18.85 0 0 1 3.61-3.129h17.11a19.151 19.151 0 0 1 3.61 3.129H28.827v1.758h11.356c.855.937 1.629 1.98 2.308 3.129H17.496a19.692 19.692 0 0 1 2.32-3.13Zm-7.265 8.015a27.46 27.46 0 0 1 1.101-3.128h32.684c.422 1.007.797 2.05 1.102 3.128h-7.583v1.758h5.32a27.11 27.11 0 0 1 .563 3.13H14.25c.129-1.056.316-2.11.563-3.13h19.78v-1.758H12.552Zm26.004 29.297h-17.11a19.158 19.158 0 0 1-3.61-3.129h24.317a18.736 18.736 0 0 1-3.597 3.13Zm8.894-12.89a27.436 27.436 0 0 1-1.101 3.129h-6.48v1.757h2.636a20.376 20.376 0 0 1-2.309 3.13H19.816a18.946 18.946 0 0 1-2.308-3.13h17.098v-1.757H13.651a27.436 27.436 0 0 1-1.101-3.13h34.898Zm1.09-6.645H26.191v1.758H45.75a27.731 27.731 0 0 1-.563 3.129H14.814a27.267 27.267 0 0 1-.563-3.13h6.668v-1.757h-9.457a35.025 35.025 0 0 1 0-3.117h37.09c.023.516.035 1.043.035 1.559 0 .515-.012 1.042-.047 1.558Z" fill="#0A557F"/><path d="M38.11 47.602h-1.758v1.757h1.757v-1.757Z" fill="#0A557F"/></svg>