<svg width="60" height="60" fill="none" xmlns="http://www.w3.org/2000/svg"><circle cx="30" cy="30" r="28" fill="#453C3C"/><path d="M29.985 2.285c-5.828 0-11.23 1.8-15.688 4.87 3.908 1.139 7.83 1.281 11.55.543 2.702-2.266 5.89-3.883 9.51-4.893a27.88 27.88 0 0 0-5.372-.52Zm9.877 1.813c-4.668.673-8.596 2.227-11.81 4.673 3.724 4.53 6.814 9.448 9.03 14.875l.25.125 7.957 3.962c1.113-2.751 1.94-5.465 1.89-8.258-1.68-4.313-2.503-8.646-2.505-12.978a27.58 27.58 0 0 0-4.812-2.399Zm7.035 3.948c.164 3.4.873 6.8 2.157 10.217l6.962 2.267a27.707 27.707 0 0 0-9.119-12.484Zm-34.482.79c-.527 3.612-.47 7.016.307 10.635l16.08 8.49c2.234-.637 4.364-1.768 6.343-3.26-2.173-5.399-5.246-10.296-9.009-14.824-4.43.851-9.12.537-13.721-1.04Zm-2.429 1.986a27.574 27.574 0 0 0-7.66 18.215A38.68 38.68 0 0 0 6.5 25.25l-.01-.029.061-.026a47.174 47.174 0 0 0 4.095-4.95 31.066 31.066 0 0 1-.66-9.423Zm39.357 9.84c-.166 2.945-1.093 5.706-2.197 8.36 3.164 4.663 5.278 9.973 6.35 15.553A27.559 27.559 0 0 0 57.66 29.96c0-2.372-.297-4.675-.857-6.87l-7.46-2.428Zm-37.06 1.055a50.325 50.325 0 0 1-3.245 4.017c2.075 5.611 2.854 11.352 3.237 17.076 2.285.228 5.227-.11 7.65-1.084 1.712-4.465 3.923-8.645 6.907-12.33l-14.55-7.68ZM36.98 26.04c-2.404 1.907-5.07 3.373-7.961 4.127-2.973 3.504-5.175 7.55-6.9 11.957 3.04 1.93 5.787 4.191 7.793 7.13 6.284-3.297 13.874-6.348 20.493-8.159-1.143-3.9-2.853-7.589-5.123-10.917L36.98 26.04ZM7.346 27.517a39.754 39.754 0 0 1-4.976 4.215 27.517 27.517 0 0 0 4.317 13.177c1.219-.184 2.337-.784 3.42-1.667-.347-5.364-1.028-10.627-2.76-15.725Zm43.623 15.7c-6.568 1.8-14.256 4.907-20.46 8.203-1.237 2.042-1.584 4.06-1.633 6.189.368.014.737.022 1.11.022 8.81 0 16.65-4.104 21.716-10.507a42.623 42.623 0 0 0-.733-3.907Zm-30.333.57c-2.982 1.184-6.368 1.522-9.126 1.125-1.031.838-2.192 1.534-3.468 1.92 4.428 5.752 11.07 9.71 18.659 10.605.069-2.139.432-4.365 1.625-6.581-1.853-2.867-4.544-5.107-7.69-7.068Z" fill="#8E6B37"/></svg>