<svg width="60" height="60" fill="none" xmlns="http://www.w3.org/2000/svg"><path d="M38 9.02v38.96c0 1.668-1.298 3.02-2.9 3.02H11.9a2.825 2.825 0 0 1-2.097-.937A3.073 3.073 0 0 1 9 47.98V9.02C9 7.352 10.298 6 11.9 6h23.2c.776 0 1.48.317 2.001.836.555.548.899 1.324.899 2.183Z" fill="#F2F2F2"/><path d="M38 9.02v38.96c0 1.668-1.298 3.02-2.899 3.02H11.899c-.826 0-1.57-.359-2.096-.937l4.84-5.043L35.059 8.965l2.043-2.13c.555.55.899 1.325.899 2.184Z" fill="#CCC"/><path d="M36.972 9.02v38.96c0 1.074-.84 1.949-1.87 1.949H11.898c-1.031 0-1.87-.875-1.87-1.95V9.02c0-1.073.839-1.947 1.87-1.947H35.1c1.032 0 1.87.874 1.87 1.947Z" fill="#E6E6E6"/><path d="M25.114 41.25a4.673 4.673 0 0 1 1.275-2.813 4.321 4.321 0 0 1 3.127-1.349 4.319 4.319 0 0 1 3.248 1.48l.006.007a4.587 4.587 0 0 1 .669.99v-.001c.333.666.5 1.399.5 2.132a4.693 4.693 0 0 1-1.296 3.258 4.32 4.32 0 0 1-3.127 1.349c-.92 0-1.84-.298-2.617-.893l-.002-.002-.003-.002a4.557 4.557 0 0 1-.505-.452 4.676 4.676 0 0 1-1.277-2.848 4.8 4.8 0 0 1 .002-.856Zm-.002-13.166a4.675 4.675 0 0 1 1.277-2.843 4.321 4.321 0 0 1 3.127-1.349 4.32 4.32 0 0 1 3.252 1.486l.002.002c.165.186.312.383.442.588l.001.002.001.002a4.762 4.762 0 0 1 .724 2.528 4.696 4.696 0 0 1-1.295 3.258 4.32 4.32 0 0 1-3.127 1.35 4.291 4.291 0 0 1-2.595-.876l-.004-.004a4.539 4.539 0 0 1-.528-.47 4.675 4.675 0 0 1-1.276-2.825 4.846 4.846 0 0 1-.001-.849Zm9.99-21.012h-5.98l-1.354 3.998a4.276 4.276 0 0 1 1.748-.374 4.32 4.32 0 0 1 3.252 1.486l.002.002c.165.186.312.383.442.588l.001.002.001.002a4.762 4.762 0 0 1 .724 2.528c0 1.18-.432 2.358-1.295 3.258a4.32 4.32 0 0 1-3.127 1.35c-.92 0-1.84-.298-2.617-.893l-.003-.002-.002-.002a4.557 4.557 0 0 1-1.29-1.559l-3.7 10.92c.002.041.002.083.002.124 0 1.064-.352 2.13-1.056 2.988l-1.976 5.833a4.377 4.377 0 0 1 1.844 1.232l.005.006a4.583 4.583 0 0 1 .684 1.006h-.001c.334.665.5 1.398.5 2.13a4.693 4.693 0 0 1-1.295 3.259 4.32 4.32 0 0 1-3.127 1.35 4.273 4.273 0 0 1-1.554-.293l-1.327 3.918H35.1c1.031 0 1.87-.874 1.87-1.95V9.02c0-.562-.23-1.07-.597-1.425a1.824 1.824 0 0 0-1.273-.522Z" fill="#EEE"/><path d="M20.611 18.562a4.297 4.297 0 0 1-6.254 0c-1.727-1.8-1.727-4.717 0-6.516a4.297 4.297 0 0 1 6.254 0c1.727 1.8 1.727 4.716 0 6.516Z" fill="#F2F2F2"/><path d="M20.611 18.562a4.297 4.297 0 0 1-6.254 0l6.254-6.516c1.727 1.8 1.727 4.716 0 6.516Z" fill="#CCC"/><path d="M19.811 17.728c1.285-1.339 1.285-3.51 0-4.849a3.198 3.198 0 0 0-4.654 0c-1.285 1.34-1.285 3.51 0 4.85a3.198 3.198 0 0 0 4.654 0Z" fill="#FF5069"/><path d="m14.915 19.055.003.002-.002-.002Zm-1.834-3.318Zm8.105-2.956Zm-.464-.616c0 .001 0 .002.002.002-.001 0-.002 0-.002-.002Zm-3.238-1.469Z" fill="#EEE"/><path d="M17.484 10.696a4.32 4.32 0 0 0-3.127 1.35 4.672 4.672 0 0 0-1.277 2.842c-.025.283-.024.567.001.85a4.672 4.672 0 0 0 1.276 2.824l.624-.65a4.837 4.837 0 0 1-.039-.43c-1.065-1.347-.994-3.343.215-4.603a3.215 3.215 0 0 1 2.327-1.004 3.2 3.2 0 0 1 2.09.78c.138.008.276.022.412.042l.625-.651a4.32 4.32 0 0 0-3.127-1.35Z" fill="#F6F6F6"/><path d="m14.981 17.911-.624.65a4.512 4.512 0 0 0 .559.494l.002.002c.167.124.34.235.52.332a4.728 4.728 0 0 1-.457-1.478Zm5.63-5.865-.625.65c.49.074.971.232 1.42.476a4.677 4.677 0 0 0-.682-1.005l-.002-.001-.004-.004a4.877 4.877 0 0 0-.107-.116Z" fill="#DCDCDC"/><path d="M17.484 11.875c-.842 0-1.684.335-2.327 1.005-1.209 1.259-1.28 3.255-.215 4.602A4.702 4.702 0 0 1 16.232 14a4.318 4.318 0 0 1 3.343-1.344 3.2 3.2 0 0 0-2.09-.78Z" fill="#FF8697"/><path d="M32.643 18.562a4.297 4.297 0 0 1-6.254 0c-1.727-1.8-1.727-4.717 0-6.516a4.297 4.297 0 0 1 6.254 0c1.727 1.8 1.727 4.716 0 6.516Z" fill="#F2F2F2"/><path d="M32.643 18.562a4.297 4.297 0 0 1-6.254 0l6.254-6.516c1.727 1.8 1.727 4.716 0 6.516Z" fill="#CCC"/><path d="M31.843 17.728c1.285-1.339 1.285-3.51 0-4.849a3.198 3.198 0 0 0-4.654 0c-1.285 1.34-1.285 3.51 0 4.85a3.198 3.198 0 0 0 4.654 0Z" fill="#FF5069"/><path d="M27.768 11.07c-.5.224-.97.55-1.38.976a4.674 4.674 0 0 0 .001 0 4.409 4.409 0 0 1 1.379-.976Z" fill="#EEE"/><path d="M33.214 12.776Zm-.002-.004v.002-.002Zm-3.696-2.076Z" fill="#F3F3F3"/><path d="M25.113 15.737a4.74 4.74 0 0 0 .491 1.72v-.001a4.74 4.74 0 0 1-.491-1.719Z" fill="#EEE"/><path d="m26.896 19.017.003.002-.003-.002Zm-1.292-1.56Z" fill="#F3F3F3"/><path d="M29.516 10.696a4.28 4.28 0 0 0-1.748.374c-.501.225-.97.55-1.38.976a4.673 4.673 0 0 0-1.277 2.842c-.024.283-.024.567.002.85a4.73 4.73 0 0 0 .491 1.718c.202.398.463.771.785 1.106l.624-.65a4.833 4.833 0 0 1-.04-.43c-1.065-1.347-.993-3.343.216-4.602a3.214 3.214 0 0 1 2.327-1.005 3.2 3.2 0 0 1 2.09.781c.138.007.275.02.412.04l.624-.65a4.319 4.319 0 0 0-3.126-1.35Z" fill="#F6F6F6"/><path d="m27.013 17.911-.624.65c.16.167.329.318.505.453l.002.002.003.003c.183.14.374.263.57.37a4.724 4.724 0 0 1-.456-1.478Zm5.63-5.865-.625.65c.49.074.971.232 1.42.476a4.631 4.631 0 0 0-.668-.988l-.002-.002a5.04 5.04 0 0 0-.125-.136Z" fill="#DCDCDC"/><path d="M29.516 11.875c-.842 0-1.684.335-2.327 1.005-1.209 1.259-1.28 3.255-.215 4.602A4.702 4.702 0 0 1 28.264 14a4.318 4.318 0 0 1 3.343-1.344 3.2 3.2 0 0 0-2.091-.78Z" fill="#FF8697"/><path d="M20.611 31.758a4.297 4.297 0 0 1-6.254 0c-1.727-1.8-1.727-4.717 0-6.516a4.297 4.297 0 0 1 6.254 0c1.727 1.8 1.727 4.716 0 6.516Z" fill="#F2F2F2"/><path d="M20.611 31.758a4.297 4.297 0 0 1-6.254 0l6.254-6.516c1.727 1.8 1.727 4.716 0 6.516Z" fill="#CCC"/><path d="M19.811 30.924c1.285-1.339 1.285-3.51 0-4.849a3.198 3.198 0 0 0-4.654 0c-1.285 1.34-1.285 3.51 0 4.849a3.198 3.198 0 0 0 4.654 0Z" fill="#FF5069"/><path d="M14.95 32.277h.002-.002Zm-.01-.008a.074.074 0 0 1 .004.003l-.005-.003Zm-1.859-3.336Zm8.105-2.956Zm-.464-.616s0 .002.002.002l-.002-.002Zm-3.238-1.469Z" fill="#EEE"/><path d="M17.484 23.892a4.32 4.32 0 0 0-3.127 1.35 4.672 4.672 0 0 0-1.277 2.842c-.025.282-.024.567.001.849a4.672 4.672 0 0 0 1.276 2.825l.624-.65a4.833 4.833 0 0 1-.039-.43c-1.065-1.348-.994-3.343.215-4.603a3.215 3.215 0 0 1 2.327-1.004 3.2 3.2 0 0 1 2.09.78c.138.008.276.021.412.042l.625-.651a4.319 4.319 0 0 0-3.127-1.35Z" fill="#F6F6F6"/><path d="m14.981 31.107-.624.65c.182.19.376.36.58.51l.002.002c.002 0 .003.002.005.003a.366.366 0 0 0 .006.005h.001c.157.115.32.218.487.308a4.73 4.73 0 0 1-.457-1.478Zm5.63-5.865-.625.65a4.3 4.3 0 0 1 1.42.476 4.662 4.662 0 0 0-.682-1.005l-.002-.002-.004-.004a5.075 5.075 0 0 0-.107-.115Z" fill="#DCDCDC"/><path d="M17.484 25.071c-.842 0-1.684.335-2.327 1.004-1.209 1.26-1.28 3.256-.215 4.602a4.702 4.702 0 0 1 1.29-3.481 4.318 4.318 0 0 1 3.343-1.344 3.2 3.2 0 0 0-2.09-.781Z" fill="#FF8697"/><path d="M32.643 31.758a4.297 4.297 0 0 1-6.254 0c-1.727-1.8-1.727-4.717 0-6.516a4.297 4.297 0 0 1 6.254 0c1.727 1.8 1.727 4.716 0 6.516Z" fill="#F2F2F2"/><path d="M32.643 31.758a4.297 4.297 0 0 1-6.254 0l6.254-6.516c1.727 1.8 1.727 4.716 0 6.516Z" fill="#CCC"/><path d="M31.843 30.924c1.285-1.339 1.285-3.51 0-4.849a3.198 3.198 0 0 0-4.654 0c-1.285 1.34-1.285 3.51 0 4.849a3.198 3.198 0 0 0 4.654 0Z" fill="#FF5069"/><path d="m26.921 32.231.002.002-.002-.002Zm-1.808-3.298Zm8.101-2.961Zm-.002-.004v.002-.002Zm-.444-.59.002.002-.002-.002Zm-3.252-1.486Z" fill="#F3F3F3"/><path d="M29.516 23.892a4.32 4.32 0 0 0-3.127 1.35 4.673 4.673 0 0 0-1.278 2.842c-.024.282-.024.567.002.849a4.672 4.672 0 0 0 1.276 2.825l.624-.65a4.833 4.833 0 0 1-.04-.43c-1.065-1.348-.993-3.343.216-4.603a3.214 3.214 0 0 1 2.327-1.004 3.2 3.2 0 0 1 2.09.78c.138.008.275.021.412.042l.624-.651a4.319 4.319 0 0 0-3.126-1.35Z" fill="#F6F6F6"/><path d="m27.013 31.107-.624.65a4.503 4.503 0 0 0 .533.474 4.354 4.354 0 0 0 .548.354 4.725 4.725 0 0 1-.457-1.478Zm5.63-5.865-.625.65a4.3 4.3 0 0 1 1.42.476 4.631 4.631 0 0 0-.668-.988l-.002-.003a5.04 5.04 0 0 0-.125-.136Z" fill="#DCDCDC"/><path d="M29.516 25.071c-.842 0-1.684.335-2.327 1.004-1.209 1.26-1.28 3.256-.215 4.602a4.702 4.702 0 0 1 1.29-3.481 4.318 4.318 0 0 1 3.343-1.344 3.2 3.2 0 0 0-2.091-.781Z" fill="#FF8697"/><path d="M20.611 44.953a4.297 4.297 0 0 1-6.254 0c-1.727-1.799-1.727-4.716 0-6.515a4.297 4.297 0 0 1 6.254 0c1.727 1.799 1.727 4.716 0 6.515Z" fill="#F2F2F2"/><path d="M20.611 44.953a4.297 4.297 0 0 1-6.254 0l6.254-6.515c1.727 1.799 1.727 4.716 0 6.515Z" fill="#CCC"/><path d="M19.811 44.12c1.285-1.34 1.285-3.51 0-4.849a3.198 3.198 0 0 0-4.654 0c-1.285 1.339-1.285 3.51 0 4.849a3.198 3.198 0 0 0 4.654 0Z" fill="#FF5069"/><path d="M17.484 37.088Z" fill="#EEE"/><path d="M21.19 39.18Zm-.467-.622Zm-1.849-1.238Z" fill="#F3F3F3"/><path d="m14.916 45.447.002.001-.002-.001Zm-1.837-3.342Z" fill="#EEE"/><path d="M17.484 37.088a4.32 4.32 0 0 0-3.127 1.35 4.67 4.67 0 0 0-1.274 2.812 4.788 4.788 0 0 0-.004.855 4.674 4.674 0 0 0 1.278 2.848l.625-.65a4.833 4.833 0 0 1-.04-.43c-1.065-1.347-.993-3.342.215-4.602a3.214 3.214 0 0 1 2.327-1.004 3.2 3.2 0 0 1 2.091.78c.138.008.275.021.412.041l.624-.65a4.38 4.38 0 0 0-1.737-1.117 4.272 4.272 0 0 0-1.39-.233Z" fill="#F6F6F6"/><path d="m14.981 44.303-.624.65c.175.182.36.345.554.49l.005.004.002.002c.167.124.34.235.52.332a4.73 4.73 0 0 1-.457-1.478Zm5.63-5.865-.625.65a4.3 4.3 0 0 1 1.42.476 4.62 4.62 0 0 0-.683-1.005l-.005-.007a4.8 4.8 0 0 0-.107-.114Z" fill="#DCDCDC"/><path d="M17.484 38.267c-.842 0-1.684.335-2.327 1.004-1.209 1.26-1.28 3.255-.215 4.602a4.702 4.702 0 0 1 1.29-3.481 4.318 4.318 0 0 1 3.343-1.344 3.2 3.2 0 0 0-2.09-.781Z" fill="#FF8697"/><path d="M32.643 44.953a4.297 4.297 0 0 1-6.254 0c-1.727-1.799-1.727-4.716 0-6.515a4.297 4.297 0 0 1 6.254 0c1.727 1.799 1.727 4.716 0 6.515Z" fill="#F2F2F2"/><path d="M32.643 44.953a4.297 4.297 0 0 1-6.254 0l6.254-6.515c1.727 1.799 1.727 4.716 0 6.515Z" fill="#CCC"/><path d="M31.843 44.12c1.285-1.34 1.285-3.51 0-4.849a3.198 3.198 0 0 0-4.654 0c-1.285 1.339-1.285 3.51 0 4.849a3.198 3.198 0 0 0 4.654 0Z" fill="#FF5069"/><path d="M25.111 42.106Zm8.106-2.933c.08.127.154.258.22.391h.001a4.641 4.641 0 0 0-.22-.391Zm-.448-.598Zm-3.253-1.487Z" fill="#F3F3F3"/><path d="M29.516 37.088a4.32 4.32 0 0 0-3.127 1.35 4.671 4.671 0 0 0-1.275 2.812 4.883 4.883 0 0 0-.003.855 4.674 4.674 0 0 0 1.278 2.848l.624-.65a4.796 4.796 0 0 1-.039-.43c-1.065-1.347-.994-3.342.215-4.602a3.215 3.215 0 0 1 2.327-1.004 3.2 3.2 0 0 1 2.09.78c.138.008.276.021.412.041l.625-.65a4.32 4.32 0 0 0-3.127-1.35Z" fill="#F6F6F6"/><path d="m27.013 44.303-.624.65c.16.167.329.318.505.453l.002.002.003.002c.183.14.374.264.57.371a4.725 4.725 0 0 1-.456-1.478Zm5.63-5.865-.625.65a4.3 4.3 0 0 1 1.42.476 4.64 4.64 0 0 0-.668-.989 4.393 4.393 0 0 0-.127-.137Z" fill="#DCDCDC"/><path d="M29.516 38.267c-.842 0-1.684.335-2.327 1.004-1.209 1.26-1.28 3.255-.215 4.602a4.702 4.702 0 0 1 1.29-3.481 4.318 4.318 0 0 1 3.343-1.344 3.2 3.2 0 0 0-2.091-.781Z" fill="#FF8697"/><path d="M56.736 23.299 39.69 55.8c-.73 1.392-2.412 1.948-3.757 1.242L16.436 46.82a2.689 2.689 0 0 1-1.351-1.705 2.883 2.883 0 0 1 .236-2.093L32.367 10.52c.73-1.39 2.412-1.947 3.757-1.241l19.498 10.224a2.689 2.689 0 0 1 1.315 1.579c.226.702.176 1.5-.2 2.218Z" fill="#F2F2F2"/><path d="M56.736 23.299 39.69 55.8c-.73 1.392-2.412 1.948-3.757 1.242L16.436 46.82a2.69 2.69 0 0 1-1.351-1.705l6.274-2.075 32.928-21.083 2.649-.875c.226.702.176 1.5-.2 2.218Z" fill="#CCC"/><path d="M55.872 22.846 38.827 55.348c-.47.897-1.558 1.256-2.424.802L16.905 45.925c-.867-.455-1.19-1.554-.72-2.45L33.23 10.972c.47-.895 1.558-1.255 2.425-.8l19.497 10.224c.867.455 1.19 1.554.72 2.45Z" fill="#E6E6E6"/><path d="M31.807 44.509a4.388 4.388 0 0 1 2.302-1.785 4.115 4.115 0 0 1 3.218.252 4.112 4.112 0 0 1 2.081 2.667l.002.007a4.33 4.33 0 0 1 .13 1.12 4.46 4.46 0 0 1-.513 1.999 4.404 4.404 0 0 1-2.514 2.147 4.093 4.093 0 0 1-5.027-2.15v-.003l-.002-.003a4.321 4.321 0 0 1-.226-.6 4.39 4.39 0 0 1 .172-2.939c.104-.248.23-.487.377-.712Zm5.758-10.985a4.39 4.39 0 0 1 2.317-1.81 4.115 4.115 0 0 1 3.218.254 4.112 4.112 0 0 1 2.082 2.668v.004l.001.003a4.347 4.347 0 0 1 .13 1.119h-.001a4.46 4.46 0 0 1-.512 1.998 4.404 4.404 0 0 1-2.514 2.147 4.092 4.092 0 0 1-5.018-2.13 4.3 4.3 0 0 1-.238-.625 4.388 4.388 0 0 1 .164-2.92 4.52 4.52 0 0 1 .37-.708Zm17.587-13.128-5.024-2.634L47.24 20.5a4.082 4.082 0 0 1 1.633.459 4.113 4.113 0 0 1 2.082 2.668v.004l.001.003c.057.228.095.457.114.686v.004c.013.143.017.287.015.43v-.001a4.46 4.46 0 0 1-.512 1.999 4.403 4.403 0 0 1-2.514 2.147 4.113 4.113 0 0 1-3.218-.252 4.094 4.094 0 0 1-1.809-1.898l-.001-.003-.001-.003a4.309 4.309 0 0 1-.402-1.868l-7.886 7.48-.053.103a4.416 4.416 0 0 1-2.194 2.028l-4.213 3.995a4.157 4.157 0 0 1 1.01 1.84l.002.007a4.34 4.34 0 0 1 .134 1.14 4.46 4.46 0 0 1-.512 1.999 4.404 4.404 0 0 1-2.514 2.147 4.113 4.113 0 0 1-3.218-.252 4.08 4.08 0 0 1-1.178-.93l-2.83 2.685 17.226 9.033c.867.454 1.955.095 2.425-.802L55.87 22.846a1.86 1.86 0 0 0 .122-1.454 1.737 1.737 0 0 0-.841-.996Z" fill="#EEE"/><path d="M37.949 23.596a4.098 4.098 0 0 1-5.256-2.756c-.664-2.262.612-4.695 2.851-5.435a4.098 4.098 0 0 1 5.255 2.756c.664 2.262-.612 4.695-2.85 5.435Z" fill="#F2F2F2"/><path d="M37.949 23.596a4.098 4.098 0 0 1-5.256-2.756l8.106-2.68c.664 2.263-.612 4.696-2.85 5.436Z" fill="#CCC"/><path d="M37.641 22.549a3.309 3.309 0 0 0 2.121-4.046 3.05 3.05 0 0 0-3.91-2.05 3.309 3.309 0 0 0-2.122 4.045 3.05 3.05 0 0 0 3.911 2.05Z" fill="#FF5069"/><path d="M32.947 21.498v.002-.002Zm-.09-3.576Zm8.104 1.105Zm-.12-.718v.002-.002Zm-2.079-2.652Z" fill="#EEE"/><path d="M38.762 15.657a4.113 4.113 0 0 0-3.218-.252 4.387 4.387 0 0 0-2.317 1.808 4.522 4.522 0 0 0-.37.709 4.387 4.387 0 0 0-.164 2.918l.81-.267a4.49 4.49 0 0 1 .154-.376c-.306-1.593.628-3.226 2.194-3.745a3.061 3.061 0 0 1 2.395.188 3.05 3.05 0 0 1 1.415 1.573c.113.066.222.138.328.215l.81-.268a4.112 4.112 0 0 0-2.037-2.503Z" fill="#F6F6F6"/><path d="m33.502 20.573-.809.267a4.262 4.262 0 0 0 .254.658v.002c.087.178.184.347.292.507.008-.493.099-.978.264-1.434ZM40.8 18.16l-.81.268c.38.277.715.621.986 1.023a4.376 4.376 0 0 0-.134-1.14v-.002l-.002-.005a4.394 4.394 0 0 0-.04-.143Z" fill="#DCDCDC"/><path d="M38.246 16.64a3.06 3.06 0 0 0-2.394-.187c-1.567.518-2.5 2.151-2.194 3.744a4.41 4.41 0 0 1 2.607-2.336 4.112 4.112 0 0 1 3.397.352 3.049 3.049 0 0 0-1.416-1.573Z" fill="#FF8697"/><path d="M48.06 28.898a4.098 4.098 0 0 1-5.256-2.756c-.664-2.262.612-4.695 2.85-5.435a4.098 4.098 0 0 1 5.256 2.756c.664 2.262-.612 4.695-2.85 5.435Z" fill="#F2F2F2"/><path d="M48.06 28.899a4.098 4.098 0 0 1-5.256-2.756l8.106-2.68c.664 2.262-.612 4.695-2.85 5.436Z" fill="#CCC"/><path d="M47.752 27.85a3.309 3.309 0 0 0 2.121-4.044 3.05 3.05 0 0 0-3.91-2.051A3.309 3.309 0 0 0 43.84 25.8a3.05 3.05 0 0 0 3.91 2.05Z" fill="#FF5069"/><path d="M47.24 20.5Z" fill="#EEE"/><path d="M51.07 24.323Zm0-.004v.003-.003Zm-2.197-3.36Z" fill="#F3F3F3"/><path d="M42.968 23.224Z" fill="#EEE"/><path d="M43.031 26.745c0 .002.001.002.002.003l-.002-.003Zm-.402-1.87Z" fill="#F3F3F3"/><path d="M48.873 20.959a4.08 4.08 0 0 0-1.633-.459 4.182 4.182 0 0 0-1.586.207 4.387 4.387 0 0 0-2.316 1.808 4.442 4.442 0 0 0-.71 2.36c-.004.42.053.847.176 1.267l.81-.267a4.49 4.49 0 0 1 .154-.376c-.306-1.593.627-3.226 2.194-3.744a3.061 3.061 0 0 1 2.395.187 3.05 3.05 0 0 1 1.415 1.573c.113.066.222.138.328.215l.81-.267a4.113 4.113 0 0 0-2.037-2.504Z" fill="#F6F6F6"/><path d="m43.613 25.875-.809.268c.061.209.137.409.226.6l.001.003.002.003c.092.197.198.384.317.56.007-.493.099-.977.263-1.434Zm7.297-2.412-.81.267c.38.277.715.621.985 1.023a4.32 4.32 0 0 0-.014-.43v-.004a4.356 4.356 0 0 0-.115-.688l-.001-.004a4.761 4.761 0 0 0-.045-.164Z" fill="#DCDCDC"/><path d="M48.357 21.942a3.06 3.06 0 0 0-2.395-.187c-1.567.518-2.5 2.151-2.194 3.744a4.41 4.41 0 0 1 2.608-2.335 4.112 4.112 0 0 1 3.397.351 3.05 3.05 0 0 0-1.416-1.573Z" fill="#FF8697"/><path d="M32.176 34.605a4.098 4.098 0 0 1-5.256-2.756c-.664-2.262.612-4.696 2.851-5.436a4.098 4.098 0 0 1 5.255 2.756c.664 2.262-.612 4.696-2.85 5.436Z" fill="#F2F2F2"/><path d="M32.175 34.605a4.098 4.098 0 0 1-5.255-2.756l8.106-2.68c.664 2.262-.612 4.696-2.85 5.436Z" fill="#CCC"/><path d="M31.868 33.557a3.309 3.309 0 0 0 2.121-4.045 3.05 3.05 0 0 0-3.91-2.05 3.309 3.309 0 0 0-2.122 4.044 3.05 3.05 0 0 0 3.911 2.051Z" fill="#FF5069"/><path d="M27.192 32.543Zm-.006-.011.002.005-.002-.005Zm-.102-3.602a4.39 4.39 0 0 0-.164 2.92 4.293 4.293 0 0 0 0-.001 4.387 4.387 0 0 1 .164-2.919Zm8.103 1.106Zm-.12-.718v.002-.002Zm-2.078-2.653Z" fill="#EEE"/><path d="M32.989 26.665a4.113 4.113 0 0 0-3.218-.252 4.386 4.386 0 0 0-2.317 1.808 4.518 4.518 0 0 0-.37.71 4.386 4.386 0 0 0-.164 2.918l.81-.268c.045-.127.097-.253.154-.375-.306-1.594.628-3.227 2.194-3.745a3.06 3.06 0 0 1 2.395.188 3.05 3.05 0 0 1 1.416 1.572c.112.067.221.139.327.216l.81-.268a4.112 4.112 0 0 0-2.037-2.504Z" fill="#F6F6F6"/><path d="m27.73 31.581-.81.268c.07.238.16.465.264.68l.002.003.002.005.004.006v.002c.082.164.174.322.274.47.008-.492.099-.977.264-1.434Zm7.296-2.412-.81.268c.38.276.715.62.986 1.022a4.377 4.377 0 0 0-.134-1.139v-.002l-.002-.005a4.816 4.816 0 0 0-.04-.144Z" fill="#DCDCDC"/><path d="M32.473 27.649a3.061 3.061 0 0 0-2.394-.188c-1.567.518-2.5 2.152-2.195 3.745a4.411 4.411 0 0 1 2.608-2.336 4.112 4.112 0 0 1 3.397.352 3.05 3.05 0 0 0-1.416-1.573Z" fill="#FF8697"/><path d="M42.286 39.907a4.098 4.098 0 0 1-5.255-2.756c-.664-2.262.612-4.696 2.85-5.436a4.098 4.098 0 0 1 5.256 2.756c.664 2.263-.612 4.696-2.85 5.436Z" fill="#F2F2F2"/><path d="M42.286 39.907a4.098 4.098 0 0 1-5.255-2.756l8.106-2.68c.664 2.263-.612 4.696-2.85 5.436Z" fill="#CCC"/><path d="M41.979 38.86a3.309 3.309 0 0 0 2.121-4.046 3.05 3.05 0 0 0-3.91-2.05 3.309 3.309 0 0 0-2.122 4.044 3.05 3.05 0 0 0 3.911 2.051Z" fill="#FF5069"/><path d="m37.271 37.781.001.002-.001-.002Zm-.076-3.548Zm8.103 1.099Zm0-.004v.002-.002Zm-.115-.688a.03.03 0 0 1 0 .003v-.003ZM43.1 31.967Z" fill="#F3F3F3"/><path d="M43.1 31.967a4.113 4.113 0 0 0-3.218-.252 4.387 4.387 0 0 0-2.317 1.808 4.522 4.522 0 0 0-.37.71 4.387 4.387 0 0 0-.164 2.918l.81-.268c.045-.127.097-.252.154-.375-.306-1.593.627-3.227 2.194-3.745a3.06 3.06 0 0 1 2.395.188 3.05 3.05 0 0 1 1.415 1.572c.113.067.222.139.328.216l.81-.268a4.113 4.113 0 0 0-2.037-2.504Z" fill="#F6F6F6"/><path d="m37.84 36.884-.809.267a4.266 4.266 0 0 0 .24.63l.001.002c.09.188.192.367.305.535.007-.493.099-.978.263-1.434Zm7.297-2.413-.81.268c.38.277.715.62.985 1.022a4.349 4.349 0 0 0-.014-.43v-.003a4.343 4.343 0 0 0-.115-.688l-.001-.005a4.764 4.764 0 0 0-.045-.164Z" fill="#DCDCDC"/><path d="M42.584 32.951a3.061 3.061 0 0 0-2.395-.188c-1.566.518-2.5 2.152-2.194 3.745a4.41 4.41 0 0 1 2.608-2.336 4.112 4.112 0 0 1 3.396.352 3.05 3.05 0 0 0-1.415-1.573Z" fill="#FF8697"/><path d="M26.403 45.614a4.098 4.098 0 0 1-5.255-2.756c-.665-2.263.612-4.696 2.85-5.436a4.098 4.098 0 0 1 5.255 2.756c.665 2.262-.612 4.696-2.85 5.436Z" fill="#F2F2F2"/><path d="M26.402 45.614a4.098 4.098 0 0 1-5.255-2.756l8.106-2.68c.664 2.262-.612 4.695-2.85 5.436Z" fill="#CCC"/><path d="M26.095 44.566a3.309 3.309 0 0 0 2.122-4.045 3.05 3.05 0 0 0-3.911-2.051 3.309 3.309 0 0 0-2.122 4.045 3.05 3.05 0 0 0 3.911 2.05Z" fill="#FF5069"/><path d="M27.216 37.674Z" fill="#EEE"/><path d="M29.415 41.053Zm-.12-.725Zm-1.012-1.848Z" fill="#F3F3F3"/><path d="m21.4 43.515.002.003-.001-.003Zm-.08-3.596Z" fill="#EEE"/><path d="M27.216 37.674a4.113 4.113 0 0 0-3.218-.252 4.385 4.385 0 0 0-2.302 1.785 4.512 4.512 0 0 0-.376.712 4.389 4.389 0 0 0-.172 2.939l.809-.268a4.49 4.49 0 0 1 .155-.376c-.306-1.593.627-3.226 2.194-3.744a3.06 3.06 0 0 1 2.394.187 3.05 3.05 0 0 1 1.416 1.573c.113.067.222.138.328.215l.81-.267a4.16 4.16 0 0 0-.971-1.697 4.081 4.081 0 0 0-1.067-.807Z" fill="#F6F6F6"/><path d="m21.956 42.59-.809.267c.067.229.151.447.251.653l.002.005.001.003c.087.177.184.346.292.506.007-.493.099-.977.263-1.434Zm7.297-2.412-.81.267c.38.277.715.621.985 1.023a4.36 4.36 0 0 0-.134-1.14l-.002-.008a4.657 4.657 0 0 0-.04-.142Z" fill="#DCDCDC"/><path d="M26.7 38.657a3.06 3.06 0 0 0-2.394-.187c-1.567.518-2.5 2.151-2.194 3.744a4.41 4.41 0 0 1 2.607-2.336 4.112 4.112 0 0 1 3.397.352 3.049 3.049 0 0 0-1.416-1.573Z" fill="#FF8697"/><path d="M36.514 50.916a4.098 4.098 0 0 1-5.256-2.756c-.664-2.262.612-4.696 2.85-5.436a4.098 4.098 0 0 1 5.256 2.756c.664 2.262-.612 4.696-2.85 5.436Z" fill="#F2F2F2"/><path d="M36.513 50.916a4.098 4.098 0 0 1-5.255-2.756l8.106-2.68c.664 2.262-.612 4.696-2.85 5.436Z" fill="#CCC"/><path d="M36.206 49.868a3.309 3.309 0 0 0 2.121-4.045 3.05 3.05 0 0 0-3.91-2.051 3.309 3.309 0 0 0-2.122 4.045 3.05 3.05 0 0 0 3.911 2.05Z" fill="#FF5069"/><path d="M31.43 45.22Zm8.095 1.127Zm-.115-.697Zm-2.083-2.674Z" fill="#F3F3F3"/><path d="M37.327 42.976a4.113 4.113 0 0 0-3.218-.252 4.385 4.385 0 0 0-2.302 1.785 4.512 4.512 0 0 0-.377.712 4.389 4.389 0 0 0-.172 2.939l.81-.268a4.49 4.49 0 0 1 .154-.376c-.306-1.593.627-3.226 2.194-3.744a3.06 3.06 0 0 1 2.395.188 3.05 3.05 0 0 1 1.416 1.572c.112.067.221.139.327.216l.81-.268a4.114 4.114 0 0 0-2.037-2.504Z" fill="#F6F6F6"/><path d="m32.067 47.892-.809.268c.061.209.137.41.226.6l.001.003.002.003c.092.197.198.385.317.56a4.46 4.46 0 0 1 .263-1.434Zm7.297-2.412-.81.268c.38.276.715.62.985 1.022a4.319 4.319 0 0 0-.129-1.12 4.312 4.312 0 0 0-.046-.17Z" fill="#DCDCDC"/><path d="M36.811 43.96a3.06 3.06 0 0 0-2.395-.188c-1.566.518-2.5 2.151-2.194 3.744a4.41 4.41 0 0 1 2.608-2.335 4.112 4.112 0 0 1 3.397.351 3.05 3.05 0 0 0-1.416-1.572Z" fill="#FF8697"/></svg>