<svg width="60" height="60" fill="none" xmlns="http://www.w3.org/2000/svg"><path d="M45.09 12.431A4.477 4.477 0 0 0 40.737 9H18.262a4.477 4.477 0 0 0-4.352 3.431L7 41.102h45l-6.91-28.67Zm-2.326 22.695H16.236a2.528 2.528 0 0 1-2.455-3.123l4.565-18.94c.128-.529.598-.9 1.141-.9h20.025c.544 0 1.013.371 1.141.9l4.565 18.94a2.53 2.53 0 0 1-2.454 3.123Z" fill="#9D9016"/><path d="M7 47.322a3.584 3.584 0 0 0 3.58 3.588h37.84A3.584 3.584 0 0 0 52 47.322V41H7v6.322Z" fill="#504B23"/><path d="M38.385 15.303a.808.808 0 0 0-.79-.64h-16.19a.808.808 0 0 0-.79.64l-3.276 15.341a.81.81 0 0 0 .789 1.005h22.744c.25 0 .482-.114.637-.311a.806.806 0 0 0 .151-.694l-3.275-15.341Zm-13.53 2.545-2.041 1.906a.807.807 0 0 1-1.35-.71l.278-1.905a.808.808 0 0 1 .8-.691h1.762a.808.808 0 0 1 .55 1.4Z" fill="#3D3939"/></svg>